<svg width="103" height="102" viewBox="0 0 103 102" fill="none" xmlns="http://www.w3.org/2000/svg">
<g filter="url(#filter0_i_556_3490)">
<ellipse cx="51.1302" cy="50.8807" rx="50.8807" ry="50.8807" fill="#67C957"/>
<ellipse cx="51.1302" cy="50.8807" rx="50.8807" ry="50.8807" fill="url(#paint0_linear_556_3490)" fill-opacity="0.2"/>
</g>
<path d="M24.8602 47.0243H26.891V44.6715C26.891 37.8954 29.6631 31.734 34.1286 27.2693C38.5941 22.8038 44.7555 20.0317 51.5324 20.0317C58.3077 20.0317 64.4675 22.8046 68.9322 27.2693C73.3977 31.7348 76.1706 37.8962 76.1706 44.6699V47.0243H78.2014C78.9597 47.0243 79.5752 47.6399 79.5752 48.3982V65.1386C79.5752 65.8969 78.9597 66.5124 78.2014 66.5124H76.1706V70.377C76.1706 72.5497 75.2792 74.5286 73.8462 75.9617L73.7667 76.0347C72.3393 77.4248 70.3936 78.2861 68.2606 78.2861H59.8024C59.5681 79.089 59.1325 79.8076 58.5559 80.3858L58.5486 80.3932C57.6573 81.2828 56.4294 81.8327 55.0774 81.8327C53.7254 81.8327 52.4935 81.2804 51.6013 80.3883C50.7092 79.501 50.1569 78.2699 50.1569 76.9122C50.1569 75.5554 50.7092 74.3242 51.5989 73.4345L51.6824 73.3575C52.5673 72.5116 53.766 71.9925 55.0774 71.9925C56.4294 71.9925 57.6613 72.5449 58.5535 73.437C59.1325 74.0128 59.5681 74.733 59.8024 75.5383H68.2606C69.6499 75.5383 70.9159 74.9812 71.8478 74.0809L71.9046 74.0201C72.8397 73.085 73.4228 71.793 73.4228 70.377V66.5124H71.3912C70.6329 66.5124 70.0173 65.8969 70.0173 65.1386V48.3982C70.0173 47.6399 70.6329 47.0243 71.3912 47.0243H73.4228V44.6699C73.4228 38.6529 70.9589 33.1793 66.9906 29.2109C63.0238 25.2442 57.551 22.7795 51.5324 22.7795C45.5122 22.7795 40.0386 25.2426 36.0702 29.2109C32.1027 33.1785 29.6388 38.6521 29.6388 44.6715V47.0243H31.6704C32.4287 47.0243 33.0443 47.6399 33.0443 48.3982V65.1386C33.0443 65.8969 32.4287 66.5124 31.6704 66.5124H24.8602C24.1019 66.5124 23.4863 65.8969 23.4863 65.1386V48.3982C23.4863 47.6399 24.1019 47.0243 24.8602 47.0243ZM35.3654 38.4193L38.041 33.7859C38.3841 33.1931 39.1059 32.9538 39.7255 33.1963L42.6127 34.3317C43.2591 33.7738 43.9582 33.2758 44.6995 32.8476C45.4311 32.425 46.208 32.0674 47.0199 31.7835L47.4781 28.7259C47.5778 28.0431 48.1658 27.5516 48.8357 27.5524L54.225 27.5508C54.9379 27.5508 55.5251 28.095 55.5924 28.7908L56.0409 31.7835C56.8535 32.0674 57.6305 32.425 58.3621 32.8476C59.1033 33.2758 59.8024 33.7738 60.4496 34.3317L63.3361 33.1963C63.9857 32.9425 64.7132 33.219 65.0384 33.8167L67.7156 38.4526C68.0603 39.0479 67.9062 39.7972 67.3831 40.2125L64.9606 42.1411C65.0117 42.4104 65.0538 42.6829 65.0887 42.9578C65.1641 43.5515 65.2031 44.1306 65.2031 44.6877C65.2031 45.2449 65.1641 45.824 65.0887 46.4177C65.0538 46.6926 65.0117 46.9651 64.9606 47.2344L67.3823 49.163C67.9314 49.6001 68.0562 50.3738 67.6953 50.9562L65.0198 55.5904C64.6767 56.1832 63.9549 56.4225 63.3353 56.18L60.448 55.0437C59.8016 55.6017 59.1025 56.0997 58.3621 56.5279C57.6305 56.9504 56.8535 57.3081 56.0409 57.592L55.5827 60.6503C55.4829 61.3332 54.8949 61.8247 54.225 61.8239L48.8357 61.8255C48.1229 61.8255 47.5357 61.2813 47.4684 60.5855L47.0199 57.592C46.208 57.3081 45.4311 56.9504 44.6995 56.5279C43.9591 56.0997 43.2599 55.6017 42.6136 55.0437L39.7263 56.18C39.0767 56.4338 38.3492 56.1573 38.024 55.5595L35.3468 50.9229C35.0021 50.3276 35.1562 49.5782 35.6793 49.163L38.101 47.2344C38.0507 46.9651 38.0077 46.6918 37.9729 46.4168C37.8974 45.8232 37.8585 45.2441 37.8585 44.6877C37.8585 44.1306 37.8974 43.5515 37.9729 42.9578C38.0077 42.6829 38.0499 42.4104 38.101 42.1411L35.6785 40.2125C35.1294 39.7754 35.0045 39.0016 35.3654 38.4193ZM39.8228 36.1801L38.3086 38.8021L40.4765 40.528C40.8853 40.8556 41.088 41.4039 40.9485 41.944C40.8342 42.3869 40.7458 42.8418 40.6882 43.3017C40.6347 43.7267 40.6063 44.1898 40.6063 44.6877C40.6063 45.1849 40.6347 45.648 40.6882 46.073C40.7425 46.5085 40.8252 46.94 40.9307 47.3609C41.0969 47.8872 40.9331 48.4841 40.4765 48.8475L38.3094 50.5734L39.8236 53.1962L42.41 52.1784C42.8974 51.9894 43.4724 52.0883 43.869 52.4785C44.5251 53.124 45.2664 53.6893 46.0734 54.1565C46.8398 54.5993 47.6654 54.9521 48.5292 55.1986C49.0774 55.313 49.5219 55.7582 49.6078 56.3438L50.0174 59.0778H53.0433L53.4529 56.3438C53.5324 55.8239 53.9063 55.3722 54.4456 55.223C55.3418 54.9756 56.1966 54.6139 56.9882 54.1565C57.7765 53.7007 58.5056 53.1475 59.152 52.5182C59.5234 52.1216 60.1139 51.9683 60.6516 52.1784L63.2379 53.1962L64.7521 50.5734L62.5851 48.8475C62.1763 48.5198 61.9736 47.9716 62.113 47.4314C62.2274 46.9886 62.3158 46.5336 62.3734 46.0738C62.4269 45.6488 62.4553 45.1857 62.4553 44.6877C62.4553 44.1898 62.4269 43.7267 62.3734 43.3017C62.3191 42.8662 62.2363 42.4355 62.1309 42.0146C61.9646 41.489 62.1276 40.8921 62.5851 40.528L64.7529 38.8021L63.2388 36.1801L60.6524 37.1971C60.165 37.3861 59.5899 37.2871 59.1934 36.897C58.5372 36.2514 57.7951 35.6853 56.9882 35.219C56.2209 34.7762 55.3961 34.4234 54.5316 34.1768C53.9833 34.0625 53.5389 33.6172 53.4529 33.0317L53.0433 30.2985H50.0174L49.6078 33.0317C49.5284 33.5515 49.1545 34.0033 48.6151 34.1525C47.7198 34.3999 46.865 34.7616 46.0734 35.219C45.2843 35.6748 44.5552 36.2279 43.9088 36.8573C43.5373 37.2539 42.9469 37.4072 42.4092 37.1971L39.8228 36.1801ZM51.5308 37.558C53.4935 37.558 55.2745 38.3569 56.5664 39.6472L56.5737 39.6545C57.8633 40.9457 58.6605 42.7267 58.6605 44.6877C58.6605 46.6496 57.8608 48.4339 56.5689 49.7258C55.2818 51.0178 53.4983 51.8175 51.5308 51.8175C49.5632 51.8175 47.7798 51.0178 46.4903 49.7283L46.4156 49.6472C45.1691 48.3625 44.4011 46.6107 44.4011 44.6877C44.4011 42.7251 45.1999 40.944 46.4903 39.6521L46.4976 39.6448C47.7887 38.3552 49.5697 37.558 51.5308 37.558ZM54.6321 41.5864C53.8414 40.7948 52.7449 40.3058 51.5308 40.3058C50.3167 40.3058 49.2202 40.7948 48.4319 41.5839C47.6379 42.3771 47.1488 43.4736 47.1488 44.6877C47.1488 45.8718 47.6143 46.9448 48.3702 47.7291L48.4319 47.7867C49.2234 48.5782 50.3199 49.0697 51.5308 49.0697C52.7416 49.0697 53.8382 48.5782 54.6297 47.7867C55.4237 46.9983 55.9128 45.901 55.9128 44.6877C55.9128 43.4736 55.4237 42.3771 54.6321 41.5864ZM56.6143 75.3737C56.225 74.9812 55.6808 74.7403 55.0774 74.7403C54.5008 74.7403 53.9777 74.9609 53.5932 75.3202L53.5405 75.3761C53.1488 75.7679 52.9047 76.3121 52.9047 76.9122C52.9047 77.5132 53.1488 78.0574 53.5405 78.4491C53.929 78.8433 54.474 79.085 55.0774 79.085C55.6808 79.085 56.225 78.8441 56.6143 78.454C57.0093 78.0598 57.2501 77.5156 57.2501 76.9122C57.2501 76.3121 57.006 75.7679 56.6143 75.3737ZM76.8275 49.7721H72.7651V63.7647H76.8275V49.7721ZM30.2965 49.7721H26.2341V63.7647H30.2965V49.7721Z" fill="white"/>
<defs>
<filter id="filter0_i_556_3490" x="0.249512" y="0" width="101.761" height="117.787" filterUnits="userSpaceOnUse" color-interpolation-filters="sRGB">
<feFlood flood-opacity="0" result="BackgroundImageFix"/>
<feBlend mode="normal" in="SourceGraphic" in2="BackgroundImageFix" result="shape"/>
<feColorMatrix in="SourceAlpha" type="matrix" values="0 0 0 0 0 0 0 0 0 0 0 0 0 0 0 0 0 0 127 0" result="hardAlpha"/>
<feOffset dy="16.0254"/>
<feGaussianBlur stdDeviation="12.0191"/>
<feComposite in2="hardAlpha" operator="arithmetic" k2="-1" k3="1"/>
<feColorMatrix type="matrix" values="0 0 0 0 0 0 0 0 0 0 0 0 0 0 0 0 0 0 0.25 0"/>
<feBlend mode="normal" in2="shape" result="effect1_innerShadow_556_3490"/>
</filter>
<linearGradient id="paint0_linear_556_3490" x1="24.2876" y1="91.3448" x2="102.011" y2="-4.00633" gradientUnits="userSpaceOnUse">
<stop stop-color="#093A01"/>
<stop offset="1" stop-color="white" stop-opacity="0.75"/>
</linearGradient>
</defs>
</svg>
