<svg width="102" height="102" viewBox="0 0 102 102" fill="none" xmlns="http://www.w3.org/2000/svg">
<g filter="url(#filter0_i_556_3585)">
<ellipse cx="50.8807" cy="50.8807" rx="50.8807" ry="50.8807" fill="#67C957"/>
<ellipse cx="50.8807" cy="50.8807" rx="50.8807" ry="50.8807" fill="url(#paint0_linear_556_3585)" fill-opacity="0.2"/>
</g>
<path fill-rule="evenodd" clip-rule="evenodd" d="M69.7894 28.8898H61.5899V28.3187C61.5899 27.855 61.2117 27.4794 60.745 27.4794H56.2002C55.4802 25.6638 53.715 24.4453 51.7006 24.4453C49.6862 24.4453 47.9216 25.6638 47.201 27.4794H42.6562C42.1895 27.4794 41.8113 27.855 41.8113 28.3187V28.8898H33.6118C31.8507 28.8898 30.4172 30.3133 30.4172 32.0633V75.0036C30.4172 76.7531 31.8501 78.1771 33.6118 78.1771H69.7894C71.5505 78.1771 72.984 76.7536 72.984 75.0036V32.0633C72.984 30.3133 71.5505 28.8898 69.7894 28.8898ZM43.5011 29.1586H47.8181C48.2088 29.1586 48.5483 28.8928 48.6398 28.516C48.9817 27.1079 50.2404 26.1245 51.7006 26.1245C53.1608 26.1245 54.4195 27.1079 54.7614 28.5154C54.8529 28.8922 55.1924 29.158 55.5831 29.158H59.9001V33.5464H43.5011V29.1586ZM60.745 35.2262C61.2117 35.2262 61.5899 34.8505 61.5899 34.3869V33.8157H68.0254V73.2512H35.3758V33.8151H41.8113V34.3863C41.8113 34.8499 42.1895 35.2256 42.6562 35.2256L60.745 35.2262ZM71.2936 75.003C71.2936 75.8269 70.6188 76.4973 69.7894 76.4973H33.6118C32.7824 76.4973 32.1076 75.8269 32.1076 75.003V32.0633C32.1076 31.2394 32.7824 30.569 33.6118 30.569H41.8113V32.1366H34.531C34.0643 32.1366 33.6861 32.5122 33.6861 32.9758V74.0905C33.6861 74.5541 34.0643 74.9298 34.531 74.9298H68.8708C69.3375 74.9298 69.7157 74.5541 69.7157 74.0905V32.9758C69.7157 32.5122 69.3375 32.1366 68.8708 32.1366H61.5899V30.569H69.7894C70.6188 30.569 71.2936 31.2394 71.2936 32.0633V75.003ZM54.3773 52.6664H49.0239C45.6456 52.6664 42.897 55.3969 42.897 58.7529V61.0469C41.5289 61.4166 40.52 62.6611 40.52 64.1353C40.52 65.9002 41.9653 67.336 43.7419 67.336C45.5184 67.336 46.9638 65.9002 46.9638 64.1353C46.9638 62.6611 45.9548 61.4166 44.5867 61.0469V58.7529C44.5867 56.3224 46.5773 54.345 49.0233 54.345H54.3767C57.755 54.345 60.5036 51.6145 60.5036 48.2585V46.0188C61.8717 45.6491 62.8807 44.4046 62.8807 42.9304C62.8807 41.1656 61.4353 39.7297 59.6588 39.7297C57.8822 39.7297 56.4368 41.1656 56.4368 42.9304C56.4368 44.4046 57.4458 45.6491 58.8139 46.0188V48.2591C58.8139 50.6896 56.8239 52.6664 54.3773 52.6664ZM45.274 64.1359C45.274 64.9752 44.5867 65.658 43.7425 65.658C42.8976 65.658 42.2109 64.9752 42.2109 64.1359C42.2109 63.2966 42.8982 62.6145 43.7425 62.6145C44.5867 62.6139 45.274 63.2966 45.274 64.1359ZM58.1272 42.9304C58.1272 42.0911 58.8145 41.4089 59.6588 41.4089C60.5036 41.4089 61.1903 42.0917 61.1903 42.9304C61.1903 43.7697 60.503 44.4519 59.6588 44.4519C58.8145 44.4519 58.1272 43.7697 58.1272 42.9304ZM42.8411 42.035C43.1711 41.7072 43.7062 41.7072 44.0362 42.035L45.8549 43.8417L47.6737 42.035C48.0036 41.7072 48.5387 41.7072 48.8687 42.035C49.1987 42.3628 49.1987 42.8944 48.8687 43.2222L47.05 45.0289L48.8687 46.8357C49.1987 47.1635 49.1987 47.695 48.8687 48.0228C48.7034 48.1864 48.4876 48.2685 48.2712 48.2685C48.0548 48.2685 47.8384 48.1864 47.6737 48.0228L45.8549 46.2161L44.0362 48.0228C43.7062 48.3506 43.1711 48.3506 42.8411 48.0228C42.5111 47.695 42.5111 47.1635 42.8411 46.8357L44.6599 45.0289L42.8411 43.2222C42.5105 42.8944 42.5105 42.3628 42.8411 42.035ZM60.5601 60.2301L58.7414 62.0368L60.5601 63.8436C60.8901 64.1714 60.8901 64.7029 60.5601 65.0307C60.3948 65.1943 60.179 65.2764 59.9626 65.2764C59.7462 65.2764 59.5297 65.1943 59.365 65.0307L57.5463 63.224L55.7275 65.0307C55.3976 65.3585 54.8625 65.3585 54.5325 65.0307C54.2025 64.7029 54.2025 64.1714 54.5325 63.8436L56.3512 62.0368L54.5325 60.2301C54.2025 59.9023 54.2025 59.3707 54.5325 59.0429C54.8625 58.7151 55.3976 58.7151 55.7275 59.0429L57.5463 60.8496L59.365 59.0429C59.695 58.7151 60.2301 58.7151 60.5601 59.0429C60.8907 59.3707 60.8907 59.9023 60.5601 60.2301ZM52.7571 28.5372C52.7571 29.1155 52.2827 29.5868 51.7006 29.5868C51.1185 29.5868 50.6441 29.1155 50.6441 28.5372C50.6441 27.959 51.1185 27.4877 51.7006 27.4877C52.2827 27.4877 52.7571 27.9596 52.7571 28.5372Z" fill="white"/>
<defs>
<filter id="filter0_i_556_3585" x="0" y="0" width="101.761" height="117.787" filterUnits="userSpaceOnUse" color-interpolation-filters="sRGB">
<feFlood flood-opacity="0" result="BackgroundImageFix"/>
<feBlend mode="normal" in="SourceGraphic" in2="BackgroundImageFix" result="shape"/>
<feColorMatrix in="SourceAlpha" type="matrix" values="0 0 0 0 0 0 0 0 0 0 0 0 0 0 0 0 0 0 127 0" result="hardAlpha"/>
<feOffset dy="16.0254"/>
<feGaussianBlur stdDeviation="12.0191"/>
<feComposite in2="hardAlpha" operator="arithmetic" k2="-1" k3="1"/>
<feColorMatrix type="matrix" values="0 0 0 0 0 0 0 0 0 0 0 0 0 0 0 0 0 0 0.25 0"/>
<feBlend mode="normal" in2="shape" result="effect1_innerShadow_556_3585"/>
</filter>
<linearGradient id="paint0_linear_556_3585" x1="24.0381" y1="91.3448" x2="101.761" y2="-4.00633" gradientUnits="userSpaceOnUse">
<stop stop-color="#093A01"/>
<stop offset="1" stop-color="white" stop-opacity="0.75"/>
</linearGradient>
</defs>
</svg>
