<svg width="102" height="102" viewBox="0 0 102 102" fill="none" xmlns="http://www.w3.org/2000/svg">
<g filter="url(#filter0_i_556_3713)">
<ellipse cx="50.8807" cy="50.8807" rx="50.8807" ry="50.8807" fill="#67C957"/>
<ellipse cx="50.8807" cy="50.8807" rx="50.8807" ry="50.8807" fill="url(#paint0_linear_556_3713)" fill-opacity="0.2"/>
</g>
<path d="M66.8528 65.4974L64.8903 62.2977C64.4562 61.5901 63.8083 61.2007 63.0658 61.2007H58.3844V60.8402C58.3844 59.8614 57.5876 59.0646 56.6088 59.0646H42.7181C41.7392 59.0646 40.9425 59.8614 40.9425 60.8402V71.7867C40.9425 72.7656 41.7392 73.5623 42.7181 73.5623H45.0481C45.3876 74.705 46.447 75.5409 47.6988 75.5409C48.9505 75.5409 50.01 74.705 50.3495 73.5623H59.2826C59.6221 74.705 60.6816 75.5409 61.9333 75.5409C63.1851 75.5409 64.2445 74.705 64.584 73.5623H65.5258C66.3687 73.5623 67.0542 72.8768 67.0542 72.0339V66.3172C67.0542 66.0642 67.008 65.8364 66.9081 65.6016C66.8915 65.5651 66.8732 65.5307 66.8528 65.4974ZM47.6982 73.969C47.0407 73.969 46.5056 73.4339 46.5056 72.7763C46.5056 72.1187 47.0407 71.5837 47.6982 71.5837C48.3558 71.5837 48.8909 72.1187 48.8909 72.7763C48.8909 73.4339 48.3564 73.969 47.6982 73.969ZM47.6982 70.0112C46.4465 70.0112 45.3871 70.8471 45.0475 71.9898H42.7176C42.6074 71.9898 42.5145 71.8969 42.5145 71.7867V60.8402C42.5145 60.73 42.6074 60.6371 42.7176 60.6371H56.6083C56.7184 60.6371 56.8113 60.73 56.8113 60.8402V71.9898H50.3484C50.0094 70.8471 48.95 70.0112 47.6982 70.0112ZM61.9323 73.969C61.2747 73.969 60.7396 73.4339 60.7396 72.7763C60.7396 72.1187 61.2747 71.5837 61.9323 71.5837C62.5898 71.5837 63.1249 72.1187 63.1249 72.7763C63.1249 73.4339 62.5904 73.969 61.9323 73.969ZM64.583 71.9898C64.2434 70.8471 63.184 70.0112 61.9323 70.0112C60.6805 70.0112 59.6211 70.8471 59.2815 71.9898H58.3838V62.7731H63.0653C63.1324 62.7731 63.3371 62.7731 63.5499 63.1196L65.4732 66.256C65.4785 66.2764 65.4801 66.293 65.4801 66.3172V69.0732H65.0106C64.5765 69.0732 64.2246 69.4251 64.2246 69.8592C64.2246 70.2932 64.5765 70.6451 65.0106 70.6451H65.4801V71.9898H64.583ZM64.4922 67.4792C64.6378 67.259 64.663 66.9807 64.5604 66.7379L63.3135 63.8014C63.1905 63.5107 62.9052 63.3227 62.5898 63.3227H59.7092C59.2751 63.3227 58.9232 63.6746 58.9232 64.1087V67.0452C58.9232 67.4792 59.2751 67.8311 59.7092 67.8311H63.8367C64.1005 67.8317 64.3466 67.699 64.4922 67.4792ZM60.4952 66.2592V64.8952H62.0692L62.6484 66.2592H60.4952ZM42.7417 44.0024V31.1379C42.7417 30.7791 42.6074 30.4556 42.3544 30.2026L39.3405 27.1893C39.0869 26.9357 38.7635 26.8014 38.4052 26.8014H28.9848C28.2552 26.8014 27.6621 27.3951 27.6621 28.1246V44.0029C27.6621 44.7325 28.2558 45.3261 28.9848 45.3261H41.4191C42.1486 45.3256 42.7417 44.7319 42.7417 44.0024ZM39.4136 29.4854L40.0577 30.1295H39.4136V29.4854ZM29.2341 43.7531V28.3733H37.8416V30.6469C37.8416 31.2282 38.3149 31.7015 38.8962 31.7015H41.1698V43.7531H29.2341ZM39.7708 37.8049C39.7708 38.239 39.4189 38.5909 38.9848 38.5909H31.419C30.9849 38.5909 30.633 38.239 30.633 37.8049C30.633 37.3708 30.9849 37.019 31.419 37.019H38.9848C39.4189 37.0184 39.7708 37.3708 39.7708 37.8049ZM39.7708 34.3221C39.7708 34.7561 39.4189 35.108 38.9848 35.108H31.419C30.9849 35.108 30.633 34.7561 30.633 34.3221C30.633 33.888 30.9849 33.5361 31.419 33.5361H38.9848C39.4189 33.5356 39.7708 33.8875 39.7708 34.3221ZM39.7708 41.2878C39.7708 41.7218 39.4189 42.0737 38.9848 42.0737H31.419C30.9849 42.0737 30.633 41.7218 30.633 41.2878C30.633 40.8537 30.9849 40.5018 31.419 40.5018H38.9848C39.4189 40.5013 39.7708 40.8537 39.7708 41.2878ZM30.6325 30.8392C30.6325 30.4051 30.9844 30.0533 31.4184 30.0533H36.1724C36.6065 30.0533 36.9584 30.4051 36.9584 30.8392C36.9584 31.2733 36.6065 31.6252 36.1724 31.6252H31.419C30.9849 31.6252 30.6325 31.2733 30.6325 30.8392ZM75.8987 33.0048L75.0918 32.6943C74.9618 32.2677 74.7909 31.8551 74.5809 31.4613L74.9322 30.6705C75.0644 30.3734 74.9994 30.0253 74.7695 29.7954L73.4076 28.4335C73.1776 28.2036 72.83 28.1391 72.5324 28.2707L71.7416 28.6221C71.3478 28.4115 70.9358 28.2407 70.5092 28.1112L70.1987 27.3037C70.0821 27.0002 69.7904 26.7998 69.4648 26.7998H67.5394C67.2143 26.7998 66.9226 27.0002 66.8055 27.3037L66.495 28.1112C66.0684 28.2412 65.6564 28.412 65.2626 28.6221L64.4712 28.2707C64.1741 28.1386 63.8265 28.203 63.5961 28.4335L62.2347 29.7954C62.0048 30.0253 61.9403 30.3729 62.0719 30.6705L62.4233 31.4613C62.2127 31.8551 62.0419 32.2672 61.9124 32.6937L61.1055 33.0042C60.8019 33.1208 60.6015 33.4125 60.6015 33.7381V35.6635C60.6015 35.9886 60.8019 36.2803 61.1055 36.3974L61.9124 36.7079C62.0424 37.1345 62.2132 37.547 62.4233 37.9408L62.0719 38.7316C61.9398 39.0287 62.0048 39.3768 62.2347 39.6068L63.5961 40.9681C63.826 41.198 64.1741 41.2625 64.4712 41.1309L65.2626 40.7795C65.6564 40.9901 66.0684 41.161 66.495 41.2905L66.8055 42.0979C66.9221 42.4014 67.2138 42.6018 67.5394 42.6018H69.4648C69.7898 42.6018 70.0816 42.4014 70.1987 42.0979L70.5092 41.291C70.9358 41.161 71.3484 40.9901 71.7421 40.7795L72.533 41.1309C72.83 41.2631 73.1782 41.198 73.4081 40.9681L74.7695 39.6068C74.9994 39.3768 75.0639 39.0287 74.9322 38.7316L74.5809 37.9403C74.7909 37.5465 74.9623 37.1345 75.0918 36.7079L75.8993 36.3974C76.2028 36.2808 76.4032 35.9891 76.4032 35.6635V33.7381C76.4026 33.4136 76.2023 33.1219 75.8987 33.0048ZM74.8302 35.1242L74.1549 35.3842C73.9131 35.4771 73.7326 35.6834 73.6724 35.9359C73.5424 36.4828 73.3264 37.0034 73.031 37.4837C72.895 37.7045 72.8768 37.9779 72.9821 38.2148L73.2759 38.8767L72.6775 39.4752L72.0156 39.1813C71.7787 39.076 71.5052 39.0948 71.2844 39.2302C70.8047 39.5257 70.2836 39.7416 69.7361 39.8722C69.4842 39.9323 69.2773 40.1123 69.1844 40.3546L68.9244 41.0294H68.0793L67.8193 40.3541C67.7263 40.1123 67.52 39.9318 67.2675 39.8716C66.7206 39.7416 66.2 39.5257 65.7198 39.2302C65.4989 39.0943 65.2255 39.076 64.9886 39.1813L64.3267 39.4752L63.7288 38.8772L64.0226 38.2154C64.1279 37.9784 64.1097 37.705 63.9737 37.4842C63.6783 37.0044 63.4623 36.4833 63.3317 35.9364C63.2716 35.6845 63.0911 35.4776 62.8493 35.3847L62.1745 35.1247V34.2786L62.8499 34.0185C63.0916 33.9256 63.2721 33.7193 63.3323 33.4668C63.4623 32.9199 63.6783 32.3993 63.9737 31.919C64.1097 31.6982 64.1279 31.4248 64.0226 31.1879L63.7288 30.526L64.3272 29.9275L64.9891 30.2214C65.226 30.3267 65.4995 30.3084 65.7203 30.1725C66.2006 29.877 66.7212 29.6611 67.2681 29.5311C67.52 29.4709 67.7269 29.2904 67.8198 29.0486L68.0798 28.3733H68.926L69.186 29.0486C69.2789 29.2904 69.4852 29.4709 69.7377 29.5311C70.2846 29.6611 70.8052 29.877 71.2855 30.1725C71.5063 30.3084 71.7797 30.3267 72.0167 30.2214L72.6785 29.9275L73.277 30.526L72.9832 31.1873C72.8779 31.4243 72.8961 31.6977 73.032 31.9185C73.3275 32.3988 73.5435 32.9194 73.674 33.4668C73.7342 33.7188 73.9147 33.9256 74.1565 34.0185L74.8312 34.2786V35.1242H74.8302ZM68.5021 30.5572C66.2167 30.5572 64.3579 32.4165 64.3579 34.7014C64.3579 36.9862 66.2172 38.8455 68.5021 38.8455C70.7869 38.8455 72.6463 36.9862 72.6463 34.7014C72.6463 32.4165 70.7875 30.5572 68.5021 30.5572ZM68.5021 37.2736C67.0838 37.2736 65.9298 36.1196 65.9298 34.7014C65.9298 33.2831 67.0838 32.1291 68.5021 32.1291C69.9204 32.1291 71.0744 33.2831 71.0744 34.7014C71.0744 36.1196 69.9204 37.2736 68.5021 37.2736ZM59.1392 40.4271H48.8565C48.5696 40.4271 48.3059 40.5829 48.1678 40.8343L45.5971 45.5077C45.4419 45.7897 45.4746 46.1384 45.6793 46.3871L53.3913 55.7328C53.5407 55.9138 53.7631 56.0186 53.9978 56.0186C54.2326 56.0186 54.455 55.9138 54.6044 55.7328L62.3164 46.3866C62.5216 46.1379 62.5544 45.7897 62.3986 45.5072L59.8279 40.8338C59.6898 40.5835 59.4255 40.4271 59.1392 40.4271ZM52.7563 45.1005L53.9973 42.8447L55.2383 45.1005H52.7563ZM55.5365 46.6729L53.9973 52.2687L52.4581 46.6729H55.5365ZM55.327 41.9996H57.809L56.568 44.2554L55.327 41.9996ZM51.4266 44.2554L50.1856 41.9996H52.6677L51.4266 44.2554ZM50.097 45.1005H47.615L48.856 42.8447L50.097 45.1005ZM50.8276 46.6729L52.2647 51.898L47.9529 46.6729H50.8276ZM57.1675 46.6729H60.0417L55.7299 51.898L57.1675 46.6729ZM57.8976 45.1005L59.1386 42.8447L60.3796 45.1005H57.8976ZM44.8579 31.493C44.5968 31.146 44.6666 30.6533 45.0137 30.3922C47.0573 28.8552 49.4921 27.9119 52.0552 27.6637C53.9135 27.4837 55.7756 27.6776 57.5371 28.2229L57.4958 28.1542C57.2728 27.7819 57.3937 27.2989 57.766 27.0759C58.1383 26.853 58.6213 26.9739 58.8442 27.3462L60.0928 29.4306C60.2169 29.638 60.2389 29.891 60.1524 30.1166C60.0659 30.3423 59.88 30.5153 59.649 30.5862L57.326 31.2991C57.2492 31.3227 57.1713 31.334 57.095 31.334C56.7587 31.334 56.4476 31.1164 56.3439 30.7785C56.2166 30.3632 56.4498 29.9238 56.8651 29.7965L57.08 29.7304C53.3295 28.5764 49.1316 29.2625 45.9587 31.6494C45.8169 31.7557 45.6514 31.8073 45.487 31.8073C45.2479 31.8068 45.0126 31.6982 44.8579 31.493ZM71.0572 45.3621C71.3666 47.9005 70.9664 50.4808 69.8994 52.8242C69.1258 54.5235 68.0266 56.039 66.6739 57.2918L66.7539 57.2907C67.188 57.2805 67.5458 57.6297 67.5528 58.0643C67.5598 58.4989 67.2133 58.8562 66.7792 58.8632L64.3493 58.9024C64.345 58.9024 64.3407 58.9024 64.3364 58.9024C64.0995 58.9024 63.8749 58.7955 63.7255 58.6107C63.5735 58.4227 63.516 58.1755 63.5703 57.9402L64.1145 55.5721C64.2117 55.1488 64.6335 54.8845 65.0568 54.9822C65.4801 55.0795 65.7439 55.5012 65.6467 55.9245L65.5962 56.1437C68.4704 53.4726 69.9757 49.4945 69.4949 45.5528C69.4422 45.122 69.749 44.7298 70.1799 44.6771C70.6134 44.625 71.0045 44.9312 71.0572 45.3621ZM39.478 61.1335C39.3228 61.3317 39.0918 61.4349 38.8586 61.4349C38.6894 61.4349 38.5185 61.3806 38.3746 61.2678C36.361 59.6916 34.8191 57.584 33.9166 55.173C33.2617 53.4243 32.9673 51.5757 33.0382 49.7335L32.9823 49.791C32.6804 50.1031 32.1829 50.1112 31.8708 49.8087C31.5587 49.5068 31.5506 49.0093 31.8531 48.6972L33.5432 46.9512C33.7114 46.7777 33.9499 46.6912 34.19 46.7165C34.4302 46.7417 34.6456 46.876 34.774 47.0812L36.0639 49.141C36.2944 49.509 36.1826 49.9941 35.8146 50.2246C35.6852 50.3057 35.5406 50.3444 35.3983 50.3444C35.1366 50.3444 34.8804 50.2138 34.731 49.9753L34.6118 49.7846C34.4678 53.7058 36.217 57.583 39.3437 60.03C39.6854 60.2976 39.7456 60.7918 39.478 61.1335Z" fill="white"/>
<defs>
<filter id="filter0_i_556_3713" x="0" y="0" width="101.761" height="117.787" filterUnits="userSpaceOnUse" color-interpolation-filters="sRGB">
<feFlood flood-opacity="0" result="BackgroundImageFix"/>
<feBlend mode="normal" in="SourceGraphic" in2="BackgroundImageFix" result="shape"/>
<feColorMatrix in="SourceAlpha" type="matrix" values="0 0 0 0 0 0 0 0 0 0 0 0 0 0 0 0 0 0 127 0" result="hardAlpha"/>
<feOffset dy="16.0254"/>
<feGaussianBlur stdDeviation="12.0191"/>
<feComposite in2="hardAlpha" operator="arithmetic" k2="-1" k3="1"/>
<feColorMatrix type="matrix" values="0 0 0 0 0 0 0 0 0 0 0 0 0 0 0 0 0 0 0.25 0"/>
<feBlend mode="normal" in2="shape" result="effect1_innerShadow_556_3713"/>
</filter>
<linearGradient id="paint0_linear_556_3713" x1="24.0381" y1="91.3448" x2="101.761" y2="-4.00633" gradientUnits="userSpaceOnUse">
<stop stop-color="#093A01"/>
<stop offset="1" stop-color="white" stop-opacity="0.75"/>
</linearGradient>
</defs>
</svg>
