<svg width="103" height="102" viewBox="0 0 103 102" fill="none" xmlns="http://www.w3.org/2000/svg">
<g filter="url(#filter0_i_556_3489)">
<ellipse cx="51.1302" cy="50.8807" rx="50.8807" ry="50.8807" fill="#67C957"/>
<ellipse cx="51.1302" cy="50.8807" rx="50.8807" ry="50.8807" fill="url(#paint0_linear_556_3489)" fill-opacity="0.2"/>
<path d="M63.8579 53.3765C61.3833 53.3765 58.9956 54.1097 56.9527 55.4966C56.2154 55.9972 55.5279 56.5803 54.9097 57.233C54.6051 57.554 54.315 57.8975 54.0445 58.2519C53.1832 59.3826 52.5377 60.6292 52.111 61.9494L45.3415 55.1452C46.5417 53.454 47.2556 51.3918 47.2556 49.1607C47.2556 47.7217 46.9597 46.3505 46.4284 45.1039C46.5329 45.0568 46.6335 44.996 46.7185 44.9096L54.6217 36.9658C56.1275 38.6679 58.315 39.7486 60.7544 39.7486C65.2846 39.7486 68.9691 36.0451 68.9691 31.4917C68.9701 26.9402 65.2856 23.2368 60.7554 23.2368C56.2251 23.2368 52.5406 26.9402 52.5406 31.4937C52.5406 32.8796 52.8854 34.1841 53.4879 35.3316L45.487 43.3734C43.6365 40.632 40.5105 38.8269 36.9735 38.8269C31.3036 38.8269 26.6914 43.4637 26.6914 49.1617C26.6914 54.8606 31.3046 59.4975 36.9735 59.4975C39.7205 59.4975 42.2127 58.403 44.0593 56.6333L51.6129 64.2256C51.5494 64.7409 51.5065 65.2621 51.5065 65.7902C51.5074 72.6346 57.0474 78.204 63.8579 78.204C70.6683 78.204 76.2073 72.6346 76.2073 65.7902C76.2073 58.9458 70.6683 53.3765 63.8579 53.3765ZM57.6538 36.9531C57.6783 36.8677 57.7066 36.7833 57.7066 36.69C57.7066 35.1156 58.981 33.8337 60.5474 33.8337C62.1137 33.8337 63.3881 35.1146 63.3881 36.69C63.3881 36.8539 63.4379 37.0012 63.5082 37.1376C62.6762 37.5499 61.7436 37.7874 60.7544 37.7874C59.6265 37.7874 58.5698 37.4812 57.6538 36.9531ZM59.2974 30.6142C59.2974 29.9212 59.8579 29.3578 60.5474 29.3578C61.2368 29.3578 61.7973 29.9212 61.7973 30.6142C61.7973 31.3072 61.2368 31.8716 60.5474 31.8716C59.8579 31.8716 59.2974 31.3072 59.2974 30.6142ZM60.7554 25.1999C64.2084 25.1999 67.017 28.0229 67.017 31.4937C67.017 33.1878 66.3441 34.725 65.2572 35.8577C65.016 34.4786 64.1938 33.3095 63.0502 32.5999C63.4819 32.0512 63.7504 31.367 63.7504 30.6142C63.7504 28.8386 62.313 27.3947 60.5474 27.3947C58.7818 27.3947 57.3443 28.8395 57.3443 30.6142C57.3443 31.367 57.6128 32.0502 58.0445 32.5999C57.0044 33.2448 56.2359 34.2725 55.9214 35.4915C55.8619 35.4189 55.8091 35.3404 55.7525 35.2638C55.7242 35.0606 55.648 34.8614 55.4927 34.7053C55.4361 34.6484 55.3677 34.618 55.3023 34.5787C54.7896 33.6659 54.4928 32.6156 54.4928 31.4946C54.4937 28.0229 57.3023 25.1999 60.7554 25.1999ZM28.6445 49.1617C28.6445 44.5454 32.3808 40.79 36.9735 40.79C41.5662 40.79 45.3025 44.5454 45.3025 49.1617C45.3025 51.0757 44.6531 52.8366 43.574 54.2481L43.572 54.2501C43.2058 52.1191 41.8435 50.3307 39.9822 49.3855C40.7869 48.5973 41.2898 47.4999 41.2898 46.2838C41.2898 43.8907 39.3533 41.9443 36.9725 41.9443C34.5917 41.9443 32.6552 43.8907 32.6552 46.2838C32.6552 47.4999 33.1591 48.5973 33.9628 49.3855C32.1015 50.3307 30.7392 52.1191 30.373 54.2511C29.2949 52.8386 28.6445 51.0767 28.6445 49.1617ZM34.6102 46.2828C34.6102 44.9724 35.6708 43.9064 36.9745 43.9064C38.2781 43.9064 39.3387 44.9724 39.3387 46.2828C39.3387 47.5932 38.2781 48.6591 36.9745 48.6591C35.6708 48.6591 34.6102 47.5932 34.6102 46.2828ZM32.0614 55.9069C32.1552 55.7558 32.2236 55.5879 32.2236 55.3965C32.2236 52.763 34.3544 50.6222 36.9735 50.6222C39.5926 50.6222 41.7234 52.764 41.7234 55.3965C41.7234 55.5879 41.7918 55.7558 41.8855 55.9069C40.5066 56.9248 38.8113 57.5334 36.9725 57.5334C35.1337 57.5334 33.4403 56.9248 32.0614 55.9069ZM57.2124 73.8194C57.3628 70.2612 60.2817 67.4118 63.8579 67.4118C67.434 67.4118 70.3519 70.2622 70.5023 73.8194C68.6986 75.33 66.3832 76.2409 63.8579 76.2409C61.3325 76.2409 59.0161 75.33 57.2124 73.8194ZM60.3804 61.9523C60.3804 60.0246 61.9409 58.456 63.8588 58.456C65.7758 58.456 67.3363 60.0246 67.3363 61.9523C67.3363 63.8801 65.7758 65.4486 63.8588 65.4486C61.9399 65.4486 60.3804 63.8801 60.3804 61.9523ZM72.2015 71.9996C71.5472 69.3837 69.7142 67.237 67.2973 66.174C68.5121 65.1718 69.2884 63.6524 69.2884 61.9533C69.2884 58.9439 66.8529 56.4939 63.8579 56.4939C60.8628 56.4939 58.4263 58.9429 58.4263 61.9533C58.4263 63.6524 59.2036 65.1718 60.4184 66.174C58.0015 67.237 56.1675 69.3837 55.5132 71.9996C54.2291 70.2612 53.4596 68.1165 53.4596 65.7902C53.4596 65.3436 53.4957 64.9039 53.5494 64.4691C53.6861 64.2443 53.7262 63.9871 53.6666 63.7388C53.9723 62.1869 54.6187 60.7274 55.5953 59.4454C55.8228 59.1461 56.0679 58.8575 56.3238 58.5885C56.8443 58.0389 57.4244 57.5461 58.0454 57.125C59.7642 55.959 61.7739 55.3416 63.8579 55.3416C69.5902 55.3416 74.2542 60.0295 74.2542 65.7912C74.2552 68.1165 73.4847 70.2602 72.2015 71.9996Z" fill="white"/>
</g>
<defs>
<filter id="filter0_i_556_3489" x="0.249512" y="0" width="101.761" height="117.787" filterUnits="userSpaceOnUse" color-interpolation-filters="sRGB">
<feFlood flood-opacity="0" result="BackgroundImageFix"/>
<feBlend mode="normal" in="SourceGraphic" in2="BackgroundImageFix" result="shape"/>
<feColorMatrix in="SourceAlpha" type="matrix" values="0 0 0 0 0 0 0 0 0 0 0 0 0 0 0 0 0 0 127 0" result="hardAlpha"/>
<feOffset dy="16.0254"/>
<feGaussianBlur stdDeviation="12.0191"/>
<feComposite in2="hardAlpha" operator="arithmetic" k2="-1" k3="1"/>
<feColorMatrix type="matrix" values="0 0 0 0 0 0 0 0 0 0 0 0 0 0 0 0 0 0 0.25 0"/>
<feBlend mode="normal" in2="shape" result="effect1_innerShadow_556_3489"/>
</filter>
<linearGradient id="paint0_linear_556_3489" x1="24.2876" y1="91.3448" x2="102.011" y2="-4.00633" gradientUnits="userSpaceOnUse">
<stop stop-color="#093A01"/>
<stop offset="1" stop-color="white" stop-opacity="0.75"/>
</linearGradient>
</defs>
</svg>
