<svg width="102" height="102" viewBox="0 0 102 102" fill="none" xmlns="http://www.w3.org/2000/svg">
<g filter="url(#filter0_i_556_3634)">
<ellipse cx="50.8807" cy="50.8807" rx="50.8807" ry="50.8807" fill="#67C957"/>
<ellipse cx="50.8807" cy="50.8807" rx="50.8807" ry="50.8807" fill="url(#paint0_linear_556_3634)" fill-opacity="0.2"/>
</g>
<g clip-path="url(#clip0_556_3634)">
<path d="M62.2568 41.2496H65.1291C65.4261 41.2496 65.6676 41.0096 65.6676 40.7144V32.3283C65.6676 29.6715 63.4937 27.5107 60.8207 27.5107H43.0487C40.3757 27.5107 38.2018 29.6715 38.2018 32.3283V40.7144C38.2018 41.0096 38.4432 41.2496 38.7403 41.2496H41.6126C41.9097 41.2496 42.1511 41.0096 42.1511 40.7144V32.2391C42.1511 31.7475 42.5541 31.3469 43.0487 31.3469H45.4048C45.579 31.3469 45.7432 31.4397 45.8437 31.5949C46.5062 32.6173 47.5267 33.2213 48.5858 33.2213H55.2234C56.3014 33.2454 57.3507 32.637 58.0247 31.5949C58.1253 31.4397 58.2895 31.3469 58.4637 31.3469H60.8198C61.3144 31.3469 61.7174 31.7475 61.7174 32.2391V40.7144C61.7174 41.0096 61.9588 41.2496 62.2559 41.2496H62.2568Z" fill="white"/>
<path d="M65.1291 58.3789H62.2568C61.9597 58.3789 61.7183 58.6189 61.7183 58.9142V67.3895C61.7183 67.881 61.3153 68.2816 60.8207 68.2816H43.0487C42.5541 68.2816 42.1511 67.881 42.1511 67.3895V58.9142C42.1511 58.6189 41.9097 58.3789 41.6126 58.3789H38.7403C38.4432 58.3789 38.2018 58.6189 38.2018 58.9142V67.3003C38.2018 69.957 40.3757 72.1178 43.0487 72.1178H60.8207C63.4937 72.1178 65.6676 69.957 65.6676 67.3003V58.9142C65.6676 58.6189 65.4261 58.3789 65.1291 58.3789Z" fill="white"/>
<path d="M69.5271 42.3203H61.7182C61.4211 42.3203 61.1797 42.5603 61.1797 42.8556V56.7729C61.1797 57.0682 61.4211 57.3082 61.7182 57.3082H69.5271C72.2001 57.3082 74.374 55.1474 74.374 52.4907V47.1378C74.374 44.4811 72.2001 42.3203 69.5271 42.3203ZM70.4615 53.183C70.0513 53.5907 69.3853 53.5907 68.9751 53.183L67.7679 51.983C67.4744 52.0803 67.1611 52.1329 66.8344 52.1329C65.1981 52.1329 63.8724 50.8152 63.8724 49.1889C63.8724 47.5625 65.1981 46.2448 66.8344 46.2448C68.4707 46.2448 69.7964 47.5625 69.7964 49.1889C69.7964 49.7224 69.6528 50.222 69.4033 50.6529L70.4615 51.7047C70.8717 52.1124 70.8717 52.7744 70.4615 53.1821V53.183Z" fill="white"/>
<path d="M34.3421 57.3082H59.564C59.8611 57.3082 60.1026 57.0682 60.1026 56.7729V42.8556C60.1026 42.5603 59.8611 42.3203 59.564 42.3203H34.3421C31.6692 42.3203 29.4952 44.4811 29.4952 47.1378V52.4907C29.4952 55.1474 31.6692 57.3082 34.3421 57.3082ZM33.8036 47.2271C33.8036 46.6356 34.2856 46.1565 34.8807 46.1565C35.4758 46.1565 35.9578 46.6356 35.9578 47.2271V52.4014C35.9578 52.9929 35.4758 53.472 34.8807 53.472C34.2856 53.472 33.8036 52.9929 33.8036 52.4014V47.2271Z" fill="white"/>
</g>
<defs>
<filter id="filter0_i_556_3634" x="0" y="0" width="101.761" height="117.787" filterUnits="userSpaceOnUse" color-interpolation-filters="sRGB">
<feFlood flood-opacity="0" result="BackgroundImageFix"/>
<feBlend mode="normal" in="SourceGraphic" in2="BackgroundImageFix" result="shape"/>
<feColorMatrix in="SourceAlpha" type="matrix" values="0 0 0 0 0 0 0 0 0 0 0 0 0 0 0 0 0 0 127 0" result="hardAlpha"/>
<feOffset dy="16.0254"/>
<feGaussianBlur stdDeviation="12.0191"/>
<feComposite in2="hardAlpha" operator="arithmetic" k2="-1" k3="1"/>
<feColorMatrix type="matrix" values="0 0 0 0 0 0 0 0 0 0 0 0 0 0 0 0 0 0 0.25 0"/>
<feBlend mode="normal" in2="shape" result="effect1_innerShadow_556_3634"/>
</filter>
<linearGradient id="paint0_linear_556_3634" x1="24.0381" y1="91.3448" x2="101.761" y2="-4.00633" gradientUnits="userSpaceOnUse">
<stop stop-color="#093A01"/>
<stop offset="1" stop-color="white" stop-opacity="0.75"/>
</linearGradient>
<clipPath id="clip0_556_3634">
<rect width="45.9559" height="57.0967" fill="white" transform="translate(29.0448 23.0146)"/>
</clipPath>
</defs>
</svg>
