<svg width="103" height="102" viewBox="0 0 103 102" fill="none" xmlns="http://www.w3.org/2000/svg">
<g filter="url(#filter0_i_556_3537)">
<ellipse cx="51.1302" cy="50.8807" rx="50.8807" ry="50.8807" fill="#67C957"/>
<ellipse cx="51.1302" cy="50.8807" rx="50.8807" ry="50.8807" fill="url(#paint0_linear_556_3537)" fill-opacity="0.2"/>
</g>
<path d="M33.8195 68.8035H70.1059V57.6384H67.3146V66.0122H36.6108V55.545H41.4955C41.7714 55.5455 42.0413 55.4643 42.2711 55.3115C42.5009 55.1588 42.6802 54.9413 42.7864 54.6867C42.8916 54.4312 42.9185 54.1502 42.8638 53.8794C42.8092 53.6086 42.6754 53.3601 42.4794 53.1654L36.199 46.8851C35.9376 46.6251 35.5838 46.4792 35.2151 46.4792C34.8464 46.4792 34.4927 46.6251 34.2312 46.8851L27.9509 53.1654C27.7549 53.3601 27.6211 53.6086 27.5664 53.8794C27.5117 54.1502 27.5387 54.4312 27.6438 54.6867C27.7501 54.9413 27.9294 55.1588 28.1592 55.3115C28.389 55.4643 28.6589 55.5455 28.9348 55.545H33.8195V68.8035Z" fill="white"/>
<path d="M74.9906 45.7756H70.1059V32.5171H33.8195V43.6821H36.6107V35.3084H67.3146V45.7756H62.4299C62.154 45.775 61.884 45.8562 61.6543 46.009C61.4245 46.1618 61.2452 46.3792 61.1389 46.6339C61.0338 46.8894 61.0068 47.1703 61.0615 47.4411C61.1162 47.7119 61.25 47.9604 61.446 48.1551L67.7263 54.4355C67.9878 54.6954 68.3415 54.8413 68.7102 54.8413C69.0789 54.8413 69.4327 54.6954 69.6941 54.4355L75.9745 48.1551C76.1705 47.9604 76.3043 47.7119 76.3589 47.4411C76.4136 47.1703 76.3866 46.8894 76.2815 46.6339C76.1753 46.3792 75.9959 46.1618 75.7662 46.009C75.5364 45.8562 75.2665 45.775 74.9906 45.7756Z" fill="white"/>
<defs>
<filter id="filter0_i_556_3537" x="0.249512" y="0" width="101.761" height="117.787" filterUnits="userSpaceOnUse" color-interpolation-filters="sRGB">
<feFlood flood-opacity="0" result="BackgroundImageFix"/>
<feBlend mode="normal" in="SourceGraphic" in2="BackgroundImageFix" result="shape"/>
<feColorMatrix in="SourceAlpha" type="matrix" values="0 0 0 0 0 0 0 0 0 0 0 0 0 0 0 0 0 0 127 0" result="hardAlpha"/>
<feOffset dy="16.0254"/>
<feGaussianBlur stdDeviation="12.0191"/>
<feComposite in2="hardAlpha" operator="arithmetic" k2="-1" k3="1"/>
<feColorMatrix type="matrix" values="0 0 0 0 0 0 0 0 0 0 0 0 0 0 0 0 0 0 0.25 0"/>
<feBlend mode="normal" in2="shape" result="effect1_innerShadow_556_3537"/>
</filter>
<linearGradient id="paint0_linear_556_3537" x1="24.2876" y1="91.3448" x2="102.011" y2="-4.00633" gradientUnits="userSpaceOnUse">
<stop stop-color="#093A01"/>
<stop offset="1" stop-color="white" stop-opacity="0.75"/>
</linearGradient>
</defs>
</svg>
