<svg width="102" height="102" viewBox="0 0 102 102" fill="none" xmlns="http://www.w3.org/2000/svg">
<g filter="url(#filter0_i_556_3559)">
<ellipse cx="50.8807" cy="50.8807" rx="50.8807" ry="50.8807" fill="#67C957"/>
<ellipse cx="50.8807" cy="50.8807" rx="50.8807" ry="50.8807" fill="url(#paint0_linear_556_3559)" fill-opacity="0.2"/>
</g>
<path d="M58.8438 40.272H55.7573V49.1734H58.8438V40.272Z" fill="white"/>
<path d="M66.8153 34.9578H63.7288V49.1735H66.8153V34.9578Z" fill="white"/>
<path d="M50.8725 37.6147H47.786V49.1733H50.8725V37.6147Z" fill="white"/>
<path d="M58.8437 55.3513H55.7572V70.8956H58.8437V55.3513Z" fill="white"/>
<path d="M58.4857 54.3619L56.1146 56.3379L66.7434 69.0918L69.1145 67.1158L58.4857 54.3619Z" fill="white"/>
<path d="M56.2518 54.3548L47.7511 64.4309L50.1101 66.4211L58.6108 56.345L56.2518 54.3548Z" fill="white"/>
<path d="M38.8351 56.3141C35.972 56.3146 33.5939 53.9304 33.588 51.0783C33.5822 48.2169 35.9628 45.8201 38.8351 45.8201C41.6989 45.8201 44.0763 48.2028 44.0821 51.0559C44.0879 53.9177 41.7082 56.3141 38.8351 56.3141Z" fill="white"/>
<path d="M38.8343 57.8575C37.0391 57.8575 35.3399 57.1474 34.0493 55.8577C32.7605 54.5696 32.0485 52.8734 32.0449 51.0815C32.0412 49.2821 32.7507 47.578 34.0429 46.2832C35.334 44.9894 37.0359 44.2769 38.8351 44.2769C40.631 44.2769 42.3309 44.987 43.6213 46.2765C44.91 47.5644 45.6218 49.2606 45.6254 51.0529C45.629 52.8527 44.9195 54.5569 43.6275 55.8515C42.3366 57.145 40.6347 57.8574 38.8355 57.8575C38.8351 57.8575 38.8346 57.8575 38.8343 57.8575ZM38.8351 47.3634C37.8615 47.3634 36.9355 47.7541 36.2276 48.4635C35.5187 49.1738 35.1294 50.1014 35.1314 51.0753C35.1355 53.0787 36.8312 54.771 38.8343 54.771C38.8345 54.7709 38.8348 54.7709 38.8352 54.771C39.809 54.771 40.7351 54.3805 41.4428 53.6713C42.1516 52.9611 42.541 52.0334 42.5389 51.0592C42.5349 49.0559 40.8387 47.3634 38.8351 47.3634Z" fill="white"/>
<path d="M41.9713 39.2808H38.8848V41.9593H41.9713V39.2808Z" fill="white"/>
<path d="M72.7333 56.8944H47.0125V53.808H72.6304V30.3231H41.9713V36.8117H38.8848V30.2202C38.8848 28.5751 40.2233 27.2366 41.8684 27.2366H72.7333C74.3784 27.2366 75.7169 28.5751 75.7169 30.2202V53.9108C75.7169 55.5559 74.3784 56.8944 72.7333 56.8944Z" fill="white"/>
<path d="M40.2625 72.2993H37.4409V75.3858H40.2625V72.2993Z" fill="white"/>
<path d="M48.0369 75.3857H42.4979V72.2992H47.3888V63.3149L43.3181 62.0032L40.4288 68.4241C40.1807 68.9756 39.6334 69.3313 39.0287 69.3341C39.0263 69.3341 39.0239 69.3341 39.0216 69.3341C38.4196 69.3341 37.8724 68.9841 37.6202 68.4371L34.6537 62.0042L30.6541 63.3102V72.2992H34.9369V75.3857H30.006C28.6615 75.3857 27.5676 74.2919 27.5676 72.9474V62.8402C27.5676 61.7822 28.2433 60.8506 29.249 60.5222L35.0009 58.644C35.7452 58.401 36.5535 58.7537 36.8813 59.4648L39.0043 64.0684L41.07 59.4777C41.3926 58.7609 42.202 58.4008 42.9506 58.6421L48.7847 60.5219C49.7957 60.8476 50.4752 61.7803 50.4752 62.8428V72.9474C50.4752 74.2919 49.3814 75.3857 48.0369 75.3857Z" fill="white"/>
<defs>
<filter id="filter0_i_556_3559" x="0" y="0" width="101.761" height="117.787" filterUnits="userSpaceOnUse" color-interpolation-filters="sRGB">
<feFlood flood-opacity="0" result="BackgroundImageFix"/>
<feBlend mode="normal" in="SourceGraphic" in2="BackgroundImageFix" result="shape"/>
<feColorMatrix in="SourceAlpha" type="matrix" values="0 0 0 0 0 0 0 0 0 0 0 0 0 0 0 0 0 0 127 0" result="hardAlpha"/>
<feOffset dy="16.0254"/>
<feGaussianBlur stdDeviation="12.0191"/>
<feComposite in2="hardAlpha" operator="arithmetic" k2="-1" k3="1"/>
<feColorMatrix type="matrix" values="0 0 0 0 0 0 0 0 0 0 0 0 0 0 0 0 0 0 0.25 0"/>
<feBlend mode="normal" in2="shape" result="effect1_innerShadow_556_3559"/>
</filter>
<linearGradient id="paint0_linear_556_3559" x1="24.0381" y1="91.3448" x2="101.761" y2="-4.00633" gradientUnits="userSpaceOnUse">
<stop stop-color="#093A01"/>
<stop offset="1" stop-color="white" stop-opacity="0.75"/>
</linearGradient>
</defs>
</svg>
