<svg width="102" height="102" viewBox="0 0 102 102" fill="none" xmlns="http://www.w3.org/2000/svg">
<g filter="url(#filter0_i_556_3720)">
<ellipse cx="50.8807" cy="50.8807" rx="50.8807" ry="50.8807" fill="#67C957"/>
<ellipse cx="50.8807" cy="50.8807" rx="50.8807" ry="50.8807" fill="url(#paint0_linear_556_3720)" fill-opacity="0.2"/>
</g>
<path d="M67.4224 49.2608H36.3811C34.3243 49.2608 32.3519 48.4374 30.8975 46.9716C29.4432 45.5058 28.6262 43.5178 28.6262 41.4449C28.6262 39.372 29.4432 37.384 30.8975 35.9182C32.3519 34.4524 34.3243 33.629 36.3811 33.629H56.1376C56.5332 34.7715 57.2716 35.7616 58.2505 36.4622C59.2293 37.1629 60.4002 37.5393 61.6008 37.5393C62.8014 37.5393 63.9723 37.1629 64.9511 36.4622C65.93 35.7616 66.6684 34.7715 67.064 33.629H77.1106C77.6262 33.629 78.1207 33.4225 78.4853 33.0551C78.8499 32.6876 79.0548 32.1892 79.0548 31.6695C79.0548 31.1499 78.8499 30.6515 78.4853 30.284C78.1207 29.9165 77.6262 29.7101 77.1106 29.7101H67.064C66.6684 28.5676 65.93 27.5775 64.9511 26.8768C63.9723 26.1762 62.8014 25.7998 61.6008 25.7998C60.4002 25.7998 59.2293 26.1762 58.2505 26.8768C57.2716 27.5775 56.5332 28.5676 56.1376 29.7101H36.3811C33.2945 29.7101 30.3344 30.9459 28.1519 33.1455C25.9694 35.3452 24.7433 38.3286 24.7433 41.4394C24.7433 44.5502 25.9694 47.5336 28.1519 49.7333C30.3344 51.933 33.2945 53.1688 36.3811 53.1688H67.4116C69.4683 53.1688 71.4408 53.9922 72.8951 55.458C74.3494 56.9238 75.1665 58.9118 75.1665 60.9847C75.1665 63.0576 74.3494 65.0456 72.8951 66.5114C71.4408 67.9771 69.4683 68.8006 67.4116 68.8006H47.6659C47.2703 67.6581 46.5319 66.668 45.553 65.9673C44.5741 65.2667 43.4033 64.8903 42.2027 64.8903C41.0021 64.8903 39.8312 65.2667 38.8524 65.9673C37.8735 66.668 37.1351 67.6581 36.7395 68.8006H26.6929C26.1773 68.8006 25.6827 69.007 25.3181 69.3745C24.9535 69.742 24.7487 70.2404 24.7487 70.7601C24.7487 71.2797 24.9535 71.7781 25.3181 72.1456C25.6827 72.5131 26.1773 72.7195 26.6929 72.7195H36.7395C37.1351 73.862 37.8735 74.8521 38.8524 75.5528C39.8312 76.2534 41.0021 76.6298 42.2027 76.6298C43.4033 76.6298 44.5741 76.2534 45.553 75.5528C46.5319 74.8521 47.2703 73.862 47.6659 72.7195H67.4116C70.4981 72.7195 73.4582 71.4837 75.6407 69.2841C77.8232 67.0844 79.0493 64.101 79.0493 60.9902C79.0493 57.8793 77.8232 54.8959 75.6407 52.6963C73.4582 50.4966 70.4981 49.2608 67.4116 49.2608H67.4224ZM61.6008 29.721C62.115 29.7022 62.6155 29.8899 62.9924 30.243C63.3692 30.5961 63.5914 31.0856 63.6101 31.6039C63.6289 32.1221 63.4426 32.6266 63.0922 33.0064C62.7419 33.3862 62.2562 33.6101 61.742 33.629H61.6008C61.0866 33.629 60.5935 33.4231 60.2299 33.0567C59.8663 32.6902 59.6621 32.1932 59.6621 31.675C59.6621 31.1568 59.8663 30.6598 60.2299 30.2933C60.5935 29.9269 61.0866 29.721 61.6008 29.721ZM42.2027 72.7195C41.8188 72.7206 41.4432 72.6068 41.1235 72.3925C40.8039 72.1782 40.5546 71.8731 40.4072 71.5158C40.2597 71.1585 40.2209 70.7652 40.2955 70.3857C40.3702 70.0061 40.5549 69.6575 40.8264 69.3839C41.0978 69.1103 41.4438 68.9241 41.8204 68.8488C42.1969 68.7736 42.5872 68.8128 42.9417 68.9613C43.2962 69.1099 43.5989 69.3612 43.8115 69.6834C44.0241 70.0055 44.1371 70.3841 44.136 70.771C44.1345 71.2873 43.9304 71.7821 43.5681 72.1472C43.2059 72.5123 42.715 72.7181 42.2027 72.7195Z" fill="white"/>
<defs>
<filter id="filter0_i_556_3720" x="0" y="0" width="101.761" height="117.787" filterUnits="userSpaceOnUse" color-interpolation-filters="sRGB">
<feFlood flood-opacity="0" result="BackgroundImageFix"/>
<feBlend mode="normal" in="SourceGraphic" in2="BackgroundImageFix" result="shape"/>
<feColorMatrix in="SourceAlpha" type="matrix" values="0 0 0 0 0 0 0 0 0 0 0 0 0 0 0 0 0 0 127 0" result="hardAlpha"/>
<feOffset dy="16.0254"/>
<feGaussianBlur stdDeviation="12.0191"/>
<feComposite in2="hardAlpha" operator="arithmetic" k2="-1" k3="1"/>
<feColorMatrix type="matrix" values="0 0 0 0 0 0 0 0 0 0 0 0 0 0 0 0 0 0 0.25 0"/>
<feBlend mode="normal" in2="shape" result="effect1_innerShadow_556_3720"/>
</filter>
<linearGradient id="paint0_linear_556_3720" x1="24.0381" y1="91.3448" x2="101.761" y2="-4.00633" gradientUnits="userSpaceOnUse">
<stop stop-color="#093A01"/>
<stop offset="1" stop-color="white" stop-opacity="0.75"/>
</linearGradient>
</defs>
</svg>
