<svg width="102" height="102" viewBox="0 0 102 102" fill="none" xmlns="http://www.w3.org/2000/svg">
<g filter="url(#filter0_i_556_3741)">
<ellipse cx="50.8807" cy="50.8807" rx="50.8807" ry="50.8807" fill="#67C957"/>
<ellipse cx="50.8807" cy="50.8807" rx="50.8807" ry="50.8807" fill="url(#paint0_linear_556_3741)" fill-opacity="0.2"/>
</g>
<path d="M68.0611 45.321C67.9296 45.0579 67.662 44.8921 67.3689 44.8921H34.8903C34.5972 44.8921 34.3296 45.0579 34.1981 45.321L30.3316 53.0746C30.2118 53.3148 30.2249 53.6004 30.3658 53.8292C30.5073 54.057 30.7555 54.1965 31.0238 54.1965H34.117V65.8269C34.117 67.9647 35.8514 69.7037 37.9835 69.7037H64.2757C66.4078 69.7037 68.1422 67.9647 68.1422 65.8269V54.1965H71.2355C71.5037 54.1965 71.7519 54.057 71.8934 53.8289C72.0343 53.6001 72.0474 53.3148 71.9276 53.0743L68.0611 45.321ZM35.3677 46.4428H58.3847L55.2915 52.6457H32.2745L35.3677 46.4428ZM35.6632 65.8269V54.1964H55.769C56.0621 54.1964 56.3297 54.0306 56.4612 53.7676L58.8622 48.952V68.1527H37.9831C36.704 68.1527 35.6632 67.1094 35.6632 65.8269ZM66.5953 65.8269C66.5953 67.1094 65.5544 68.153 64.2754 68.153H60.4089V48.9523L62.8099 53.7683C62.9414 54.031 63.209 54.1968 63.5021 54.1968H66.5953V65.8269ZM63.9798 52.6457L60.8866 46.4428H66.8908L69.984 52.6457H63.9798Z" fill="white"/>
<path d="M47.2632 55.7471C44.7044 55.7471 42.6234 57.8336 42.6234 60.3993C42.6234 62.0771 43.5258 63.6108 44.9596 64.4335C45.0324 64.7863 45.3431 65.0514 45.7167 65.0514H48.8099C49.1834 65.0514 49.4941 64.7863 49.5669 64.4335C51.0007 63.6108 51.9031 62.077 51.9031 60.3993C51.9031 57.8336 49.822 55.7471 47.2632 55.7471ZM48.4998 63.2387C48.3683 63.2961 48.2585 63.3875 48.1787 63.5007H48.0365V61.1746H48.8098V59.6239H45.7166V61.1746H46.4899V63.5007H46.3477C46.2679 63.3875 46.1581 63.2961 46.0266 63.2387C44.8984 62.7434 44.17 61.6291 44.17 60.3993C44.17 58.6889 45.5574 57.2978 47.2632 57.2978C48.969 57.2978 50.3564 58.6889 50.3564 60.3993C50.3564 61.6291 49.628 62.7433 48.4998 63.2387Z" fill="white"/>
<path d="M45.7166 65.8267H48.8098V67.3774H45.7166V65.8267Z" fill="white"/>
<path d="M39.5305 59.6235H41.0771V61.1743H39.5305V59.6235Z" fill="white"/>
<path d="M53.4497 59.6235H54.9963V61.1743H53.4497V59.6235Z" fill="white"/>
<path d="M41.2474 55.4643L42.3411 54.3677L43.4348 55.4643L42.3411 56.5608L41.2474 55.4643Z" fill="white"/>
<path d="M51.0902 65.3334L52.1839 64.2368L53.2776 65.3334L52.1839 66.43L51.0902 65.3334Z" fill="white"/>
<path d="M41.2474 65.3334L42.3411 64.2368L43.4348 65.3334L42.3411 66.43L41.2474 65.3334Z" fill="white"/>
<path d="M51.0902 55.4643L52.1839 54.3677L53.2776 55.4643L52.1839 56.5608L51.0902 55.4643Z" fill="white"/>
<path d="M39.5303 43.341C41.6624 43.341 43.3968 41.602 43.3968 39.4642C43.3968 37.3264 41.6624 35.5874 39.5303 35.5874C37.3982 35.5874 35.6638 37.3264 35.6638 39.4642C35.6638 41.602 37.3982 43.341 39.5303 43.341ZM39.5303 37.1381C40.8094 37.1381 41.8502 38.1817 41.8502 39.4642C41.8502 40.7467 40.8094 41.7903 39.5303 41.7903C38.2512 41.7903 37.2104 40.7467 37.2104 39.4642C37.2104 38.1817 38.2512 37.1381 39.5303 37.1381Z" fill="white"/>
<path d="M61.955 43.341C64.0871 43.341 65.8215 41.602 65.8215 39.4642C65.8215 37.3264 64.0871 35.5874 61.955 35.5874C59.8229 35.5874 58.0885 37.3264 58.0885 39.4642C58.0885 41.602 59.8229 43.341 61.955 43.341ZM61.955 37.1381C63.2341 37.1381 64.2749 38.1817 64.2749 39.4642C64.2749 40.7467 63.2341 41.7903 61.955 41.7903C60.6759 41.7903 59.6351 40.7467 59.6351 39.4642C59.6351 38.1817 60.6759 37.1381 61.955 37.1381Z" fill="white"/>
<path d="M38.7562 34.0368H40.3028C40.3028 28.9063 36.1401 24.7324 31.0232 24.7324V26.2832C35.287 26.2832 38.7562 29.7616 38.7562 34.0368Z" fill="white"/>
<path d="M61.1827 34.0367H62.7293C62.7293 28.479 67.2393 23.957 72.7823 23.957V22.4062C66.3863 22.4062 61.1827 27.6237 61.1827 34.0367Z" fill="white"/>
<path d="M50.3565 30.1598H51.9031C51.9031 24.6021 47.3932 20.0801 41.8502 20.0801V21.6308C46.5404 21.6308 50.3565 25.4571 50.3565 30.1598Z" fill="white"/>
<path d="M57.3154 29.3845C57.3154 25.9642 60.0906 23.1816 63.5018 23.1816V21.6309C59.238 21.6309 55.7688 25.1093 55.7688 29.3845H57.3154Z" fill="white"/>
<path d="M31.0232 31.7109C33.1553 31.7109 34.8897 33.4499 34.8897 35.5877H36.4363C36.4363 32.595 34.008 30.1602 31.0232 30.1602L31.0232 31.7109Z" fill="white"/>
<path d="M44.1702 32.4859H45.7168C45.7168 25.6458 40.1659 20.0801 33.344 20.0801V21.6308C39.314 21.6308 44.1702 26.5 44.1702 32.4859Z" fill="white"/>
<path d="M27.9303 24.7324H29.4769V26.2832H27.9303V24.7324Z" fill="white"/>
<path d="M27.9303 30.1602H29.4769V31.7109H27.9303V30.1602Z" fill="white"/>
<path d="M30.2507 20.0801H31.7973V21.6308H30.2507V20.0801Z" fill="white"/>
<path d="M27.1572 20.0801H28.7038V21.6308H27.1572V20.0801Z" fill="white"/>
<path d="M44.17 34.0366H45.7166V35.5873H44.17V34.0366Z" fill="white"/>
<path d="M55.7688 30.9355H57.3154V32.4863H55.7688V30.9355Z" fill="white"/>
<path d="M74.3279 22.4062H75.8745V23.957H74.3279V22.4062Z" fill="white"/>
<path d="M56.5429 21.6308V20.0801C53.9841 20.0801 51.9031 22.1666 51.9031 24.7323H53.4497C53.4497 23.0219 54.8371 21.6308 56.5429 21.6308Z" fill="white"/>
<path d="M57.3154 34.0366H58.862V35.5873H57.3154V34.0366Z" fill="white"/>
<path d="M50.3564 31.7109H51.9031V33.2617H50.3564V31.7109Z" fill="white"/>
<path d="M50.3564 35.6656C48.5941 36.0263 47.2632 37.5915 47.2632 39.4642C47.2632 41.602 48.9976 43.341 51.1297 43.341C53.2618 43.341 54.9962 41.602 54.9962 39.4642C54.9962 37.5926 53.6653 36.0263 51.903 35.6656V34.812H50.3564V35.6656ZM53.4496 39.4642C53.4496 40.7467 52.4088 41.7903 51.1297 41.7903C49.8506 41.7903 48.8098 40.7467 48.8098 39.4642C48.8098 38.1817 49.8506 37.1381 51.1297 37.1381C52.4088 37.1381 53.4496 38.1817 53.4496 39.4642Z" fill="white"/>
<defs>
<filter id="filter0_i_556_3741" x="0" y="0" width="101.761" height="117.787" filterUnits="userSpaceOnUse" color-interpolation-filters="sRGB">
<feFlood flood-opacity="0" result="BackgroundImageFix"/>
<feBlend mode="normal" in="SourceGraphic" in2="BackgroundImageFix" result="shape"/>
<feColorMatrix in="SourceAlpha" type="matrix" values="0 0 0 0 0 0 0 0 0 0 0 0 0 0 0 0 0 0 127 0" result="hardAlpha"/>
<feOffset dy="16.0254"/>
<feGaussianBlur stdDeviation="12.0191"/>
<feComposite in2="hardAlpha" operator="arithmetic" k2="-1" k3="1"/>
<feColorMatrix type="matrix" values="0 0 0 0 0 0 0 0 0 0 0 0 0 0 0 0 0 0 0.25 0"/>
<feBlend mode="normal" in2="shape" result="effect1_innerShadow_556_3741"/>
</filter>
<linearGradient id="paint0_linear_556_3741" x1="24.0381" y1="91.3448" x2="101.761" y2="-4.00633" gradientUnits="userSpaceOnUse">
<stop stop-color="#093A01"/>
<stop offset="1" stop-color="white" stop-opacity="0.75"/>
</linearGradient>
</defs>
</svg>
