<svg width="102" height="102" viewBox="0 0 102 102" fill="none" xmlns="http://www.w3.org/2000/svg">
<g filter="url(#filter0_i_556_3734)">
<ellipse cx="50.8807" cy="50.8807" rx="50.8807" ry="50.8807" fill="#67C957"/>
<ellipse cx="50.8807" cy="50.8807" rx="50.8807" ry="50.8807" fill="url(#paint0_linear_556_3734)" fill-opacity="0.2"/>
</g>
<path fill-rule="evenodd" clip-rule="evenodd" d="M25.4497 25.1035H49.1337V48.7882H25.4497V25.1035ZM54.2884 25.1035H77.9703V48.7882H54.2863V25.1035H54.2884ZM65.3352 40.019V40.4437C65.3321 40.55 65.3503 40.6558 65.3888 40.7549C65.4273 40.854 65.4853 40.9444 65.5593 41.0206C65.6334 41.0969 65.722 41.1576 65.8199 41.199C65.9178 41.2404 66.023 41.2617 66.1294 41.2617C66.2357 41.2617 66.3409 41.2404 66.4388 41.199C66.5367 41.1576 66.6253 41.0969 66.6994 41.0206C66.7734 40.9444 66.8314 40.854 66.8699 40.7549C66.9084 40.6558 66.9266 40.55 66.9235 40.4437V40.019C66.9266 39.9127 66.9084 39.8069 66.8699 39.7078C66.8314 39.6087 66.7734 39.5183 66.6994 39.4421C66.6253 39.3658 66.5367 39.3051 66.4388 39.2637C66.3409 39.2223 66.2357 39.201 66.1294 39.201C66.023 39.201 65.9178 39.2223 65.8199 39.2637C65.722 39.3051 65.6334 39.3658 65.5593 39.4421C65.4853 39.5183 65.4273 39.6087 65.3888 39.7078C65.3503 39.8069 65.3321 39.9127 65.3352 40.019ZM65.3352 36.2548V38.3506C65.3321 38.4569 65.3503 38.5627 65.3888 38.6618C65.4273 38.7609 65.4853 38.8513 65.5593 38.9276C65.6334 39.0038 65.722 39.0645 65.8199 39.1059C65.9178 39.1473 66.023 39.1686 66.1294 39.1686C66.2357 39.1686 66.3409 39.1473 66.4388 39.1059C66.5367 39.0645 66.6253 39.0038 66.6994 38.9276C66.7734 38.8513 66.8314 38.7609 66.8699 38.6618C66.9084 38.5627 66.9266 38.4569 66.9235 38.3506V36.2548C66.9266 36.1485 66.9084 36.0427 66.8699 35.9436C66.8314 35.8445 66.7734 35.7541 66.6994 35.6779C66.6253 35.6016 66.5367 35.5409 66.4388 35.4995C66.3409 35.4581 66.2357 35.4368 66.1294 35.4368C66.023 35.4368 65.9178 35.4581 65.8199 35.4995C65.722 35.5409 65.6334 35.6016 65.5593 35.6779C65.4853 35.7541 65.4273 35.8445 65.3888 35.9436C65.3503 36.0427 65.3321 36.1485 65.3352 36.2548ZM66.8016 31.2491C66.74 31.153 66.6588 31.0709 66.5635 31.0081C66.4764 30.951 66.3788 30.9116 66.2764 30.8923C66.174 30.8729 66.0688 30.8739 65.9668 30.8953C65.8648 30.9166 65.768 30.9579 65.682 31.0167C65.596 31.0755 65.5224 31.1507 65.4654 31.2379L58.586 41.7521C58.5011 41.8707 58.4505 42.0104 58.4398 42.1559C58.429 42.3013 58.4585 42.4469 58.525 42.5768C58.5916 42.7066 58.6925 42.8156 58.8169 42.8918C58.9412 42.968 59.0842 43.0085 59.2301 43.0089H73.0287C73.1827 43.0099 73.3336 42.9653 73.4624 42.8808C73.6386 42.7655 73.7618 42.585 73.8049 42.379C73.848 42.1729 73.8075 41.9582 73.6922 41.782L66.7989 31.2491H66.8016ZM68.9149 37.3765L66.1297 33.1186L60.6986 41.4206H71.5609L68.9149 37.3765ZM54.2863 53.3838H77.9703V77.0685H54.2863V53.3838ZM66.2989 58.8219C66.2662 58.8219 66.2342 58.8219 66.2021 58.8219C66.1701 58.8219 66.1534 58.8219 66.129 58.8219C66.1046 58.8219 66.0817 58.8219 66.0594 58.8219C64.3663 58.8536 62.7542 59.5524 61.5737 60.7665C60.3932 61.9806 59.7399 63.6116 59.7557 65.3049C59.7715 66.9982 60.4553 68.6168 61.6583 69.8085C62.8612 71.0003 64.4861 71.6689 66.1795 71.6689C67.8729 71.6689 69.4977 71.0003 70.7007 69.8085C71.9037 68.6168 72.5875 66.9982 72.6033 65.3049C72.6191 63.6116 71.9657 61.9806 70.7853 60.7665C69.6048 59.5524 67.992 58.8536 66.2989 58.8219ZM69.6328 61.9107C68.9113 61.1469 67.9599 60.64 66.9235 60.4673V64.4362H70.8924C70.7339 63.4891 70.2963 62.6109 69.6356 61.9142L69.6328 61.9107ZM65.3352 60.4673C64.4614 60.6136 63.6447 60.9978 62.9748 61.5776C62.3048 62.1575 61.8076 62.9107 61.5375 63.7546C61.2674 64.5984 61.235 65.5004 61.4437 66.3615C61.6524 67.2226 62.0943 68.0095 62.7208 68.6361C63.3473 69.2626 64.1343 69.7044 64.9954 69.9132C65.8565 70.1219 66.7584 70.0895 67.6023 69.8194C68.4462 69.5493 69.1994 69.052 69.7792 68.3821C70.3591 67.7122 70.7433 66.8955 70.8896 66.0216H66.129C65.9184 66.0215 65.7165 65.9377 65.5677 65.7887C65.4188 65.6397 65.3352 65.4378 65.3352 65.2272V60.4673ZM25.4497 53.3838H49.1337V77.0685H25.4497V53.3838ZM38.2261 59.2536V57.7113C38.22 57.5047 38.1337 57.3087 37.9854 57.1648C37.8371 57.0208 37.6386 56.9403 37.432 56.9403C37.2254 56.9403 37.0269 57.0208 36.8786 57.1648C36.7303 57.3087 36.644 57.5047 36.6379 57.7113V59.2153C35.3165 59.3594 34.0793 59.9346 33.1176 60.8521C32.1558 61.7696 31.5229 62.9782 31.3167 64.2913H29.7765C29.5658 64.2913 29.3637 64.375 29.2147 64.524C29.0657 64.673 28.982 64.8751 28.982 65.0858C28.982 65.2965 29.0657 65.4986 29.2147 65.6476C29.3637 65.7966 29.5658 65.8803 29.7765 65.8803H31.2812C31.4244 67.202 31.9993 68.4397 32.917 69.4016C33.8346 70.3636 35.0438 70.9961 36.3573 71.2014V72.741C36.3541 72.8472 36.3723 72.953 36.4108 73.0521C36.4493 73.1512 36.5073 73.2416 36.5814 73.3179C36.6554 73.3942 36.744 73.4548 36.8419 73.4962C36.9399 73.5376 37.0451 73.559 37.1514 73.559C37.2577 73.559 37.3629 73.5376 37.4609 73.4962C37.5588 73.4548 37.6474 73.3942 37.7214 73.3179C37.7955 73.2416 37.8535 73.1512 37.892 73.0521C37.9305 72.953 37.9487 72.8472 37.9455 72.741V71.2383C39.2671 71.0952 40.5047 70.5204 41.4666 69.6029C42.4286 68.6854 43.0612 67.4764 43.2667 66.163H44.8097C45.0202 66.163 45.2221 66.0794 45.371 65.9305C45.5198 65.7816 45.6034 65.5797 45.6034 65.3692C45.6034 65.1587 45.5198 64.9568 45.371 64.8079C45.2221 64.6591 45.0202 64.5754 44.8097 64.5754H43.3022C43.1588 63.2537 42.5838 62.0161 41.6663 61.0541C40.7487 60.0921 39.5396 59.4593 38.2261 59.2536ZM36.6379 60.8112C35.7385 60.9455 34.9015 61.3506 34.2382 61.9726C33.5749 62.5945 33.1169 63.4039 32.9252 64.2927H33.6577C33.762 64.2927 33.8653 64.3133 33.9617 64.3532C34.0581 64.3931 34.1457 64.4517 34.2195 64.5254C34.2933 64.5992 34.3518 64.6868 34.3917 64.7832C34.4316 64.8796 34.4522 64.9829 34.4522 65.0872C34.4522 65.1915 34.4316 65.2949 34.3917 65.3912C34.3518 65.4876 34.2933 65.5752 34.2195 65.649C34.1457 65.7228 34.0581 65.7813 33.9617 65.8212C33.8653 65.8611 33.762 65.8817 33.6577 65.8817H32.8751C33.0093 66.781 33.4144 67.6181 34.0364 68.2814C34.6584 68.9447 35.4677 69.4027 36.3566 69.5944V68.8612C36.3534 68.7549 36.3716 68.6491 36.4101 68.55C36.4486 68.4509 36.5066 68.3605 36.5807 68.2842C36.6547 68.208 36.7433 68.1473 36.8412 68.1059C36.9392 68.0645 37.0444 68.0432 37.1507 68.0432C37.257 68.0432 37.3622 68.0645 37.4602 68.1059C37.5581 68.1473 37.6467 68.208 37.7207 68.2842C37.7948 68.3605 37.8528 68.4509 37.8913 68.55C37.9298 68.6491 37.948 68.7549 37.9448 68.8612V69.6431C38.8443 69.5091 39.6815 69.1041 40.3448 68.4821C41.0082 67.8601 41.4661 67.0506 41.6575 66.1616H40.9236C40.7131 66.1616 40.5112 66.078 40.3623 65.9291C40.2135 65.7802 40.1298 65.5783 40.1298 65.3678C40.1298 65.1573 40.2135 64.9554 40.3623 64.8065C40.5112 64.6577 40.7131 64.574 40.9236 64.574H41.7062C41.5728 63.6743 41.168 62.8368 40.5459 62.1732C39.9238 61.5097 39.114 61.0518 38.2247 60.8607V61.5932C38.2279 61.6994 38.2097 61.8053 38.1712 61.9044C38.1327 62.0035 38.0747 62.0938 38.0006 62.1701C37.9266 62.2464 37.838 62.307 37.7401 62.3484C37.6422 62.3898 37.5369 62.4112 37.4306 62.4112C37.3243 62.4112 37.2191 62.3898 37.1212 62.3484C37.0232 62.307 36.9346 62.2464 36.8606 62.1701C36.7865 62.0938 36.7285 62.0035 36.69 61.9044C36.6515 61.8053 36.6333 61.6994 36.6365 61.5932V60.8112H36.6379ZM37.4122 32.3555C36.3505 32.3276 35.3121 32.6687 34.4738 33.3206C33.6354 33.9726 33.049 34.895 32.8145 35.9307C32.5799 36.9665 32.7117 38.0515 33.1874 39.001C33.6631 39.9505 34.4533 40.7057 35.4234 41.1379C36.3934 41.5701 37.4833 41.6527 38.5074 41.3715C39.5315 41.0903 40.4264 40.4627 41.0397 39.5957C41.653 38.7287 41.9467 37.6759 41.8708 36.6166C41.7949 35.5573 41.3541 34.5571 40.6235 33.7864C40.2089 33.3481 39.7117 32.9961 39.1606 32.7505C38.6095 32.5049 38.0153 32.3707 37.4122 32.3555ZM39.476 34.8761C38.9976 34.3713 38.3591 34.0479 37.6691 33.9611C36.9791 33.8742 36.2803 34.0292 35.6917 34.3998C35.1032 34.7703 34.6613 35.3334 34.4413 35.9931C34.2213 36.6529 34.2369 37.3685 34.4853 38.0181C34.7337 38.6676 35.1996 39.211 35.8036 39.5556C36.4077 39.9003 37.1125 40.0249 37.7981 39.9081C38.4837 39.7914 39.1077 39.4407 39.5637 38.9156C40.0197 38.3905 40.2795 37.7236 40.299 37.0284C40.3108 36.633 40.2441 36.2393 40.1028 35.8699C39.9616 35.5005 39.7485 35.1627 39.476 34.8761ZM39.6299 29.727L39.1703 28.1707L35.8852 28.0823L35.3428 29.61C35.0832 29.6777 34.8275 29.7595 34.5768 29.8551C34.3247 29.9523 34.0779 30.0627 33.8374 30.1858L32.4134 29.4115L30.0279 31.6717L30.7242 33.134C30.455 33.5985 30.2358 34.0903 30.0704 34.6011L28.5141 35.0606L28.4257 38.3472L29.9534 38.8896C30.0905 39.4106 30.2838 39.9151 30.5299 40.3943L29.7549 41.8175L32.0151 44.2024L33.4774 43.5061C33.7097 43.641 33.9491 43.7632 34.1946 43.8723C34.4397 43.9814 34.6905 44.0774 34.9459 44.1599L35.4054 45.7161L38.6906 45.8045L39.233 44.2769C39.4925 44.2086 39.7482 44.1266 39.9989 44.0311C40.2513 43.9346 40.4982 43.8241 40.7384 43.7003L42.1623 44.4753L44.5479 42.2151L43.8516 40.7529C43.9863 40.5203 44.1086 40.2806 44.2178 40.035C44.3268 39.79 44.4228 39.5395 44.5054 39.2844L46.0609 38.8248L46.1487 35.5397L44.621 34.9966C44.5536 34.7369 44.4718 34.4812 44.3759 34.2306C44.2792 33.9782 44.169 33.7311 44.0458 33.4905L44.8201 32.0672L42.5599 29.681L41.0977 30.3773C40.865 30.2426 40.6257 30.1199 40.3805 30.0097C40.1355 29.9004 39.8847 29.8049 39.6292 29.7235L39.6299 29.727ZM39.7357 31.4594C39.4326 31.3236 39.1187 31.2137 38.7971 31.1307L38.3598 31.0179L37.9769 29.7221L36.9951 29.6949L36.5425 30.9685L36.1003 31.0576C35.7742 31.1235 35.4542 31.2166 35.1436 31.3361C34.8329 31.4557 34.5325 31.6006 34.2454 31.7692L33.8596 31.9969L32.6703 31.35L31.9566 32.0268L32.5387 33.2481L32.2895 33.6207C32.1042 33.8991 31.9426 34.1926 31.8062 34.498C31.6703 34.8008 31.5603 35.1145 31.4776 35.4359L31.3648 35.8746L30.0683 36.2562L30.0418 37.238L31.3153 37.6906L31.4038 38.1334C31.4704 38.4596 31.5636 38.7798 31.6823 39.0908C31.8015 39.4015 31.9464 39.7017 32.1154 39.9883L32.3431 40.3734L31.6962 41.5627L32.3716 42.2764L33.5936 41.695L33.9676 41.9436C34.5227 42.3141 35.1361 42.589 35.7821 42.7568L36.2201 42.8696L36.6024 44.1655L37.5841 44.1919L38.0367 42.9184L38.4789 42.8293C39.1322 42.6949 39.7589 42.4538 40.3338 42.1155L40.7196 41.8885L41.9089 42.5347L42.6226 41.8593L42.0433 40.6415L42.2918 40.2676C42.4768 39.9894 42.6385 39.6964 42.7751 39.3916C42.9111 39.0886 43.0213 38.7746 43.1044 38.453L43.2172 38.015L44.513 37.6321L44.5402 36.6503L43.266 36.1984L43.1775 35.7562C43.1113 35.4299 43.0182 35.1097 42.899 34.7988C42.78 34.4881 42.6351 34.1878 42.4659 33.9013L42.2382 33.5155L42.8851 32.3255L42.2097 31.6118L40.9877 32.1939L40.6138 31.9454C40.3348 31.7586 40.0403 31.596 39.7336 31.4594H39.7357Z" fill="white"/>
<defs>
<filter id="filter0_i_556_3734" x="0" y="0" width="101.761" height="117.787" filterUnits="userSpaceOnUse" color-interpolation-filters="sRGB">
<feFlood flood-opacity="0" result="BackgroundImageFix"/>
<feBlend mode="normal" in="SourceGraphic" in2="BackgroundImageFix" result="shape"/>
<feColorMatrix in="SourceAlpha" type="matrix" values="0 0 0 0 0 0 0 0 0 0 0 0 0 0 0 0 0 0 127 0" result="hardAlpha"/>
<feOffset dy="16.0254"/>
<feGaussianBlur stdDeviation="12.0191"/>
<feComposite in2="hardAlpha" operator="arithmetic" k2="-1" k3="1"/>
<feColorMatrix type="matrix" values="0 0 0 0 0 0 0 0 0 0 0 0 0 0 0 0 0 0 0.25 0"/>
<feBlend mode="normal" in2="shape" result="effect1_innerShadow_556_3734"/>
</filter>
<linearGradient id="paint0_linear_556_3734" x1="24.0381" y1="91.3448" x2="101.761" y2="-4.00633" gradientUnits="userSpaceOnUse">
<stop stop-color="#093A01"/>
<stop offset="1" stop-color="white" stop-opacity="0.75"/>
</linearGradient>
</defs>
</svg>
