<svg width="102" height="102" viewBox="0 0 102 102" fill="none" xmlns="http://www.w3.org/2000/svg">
<g filter="url(#filter0_i_556_3610)">
<ellipse cx="50.8807" cy="50.8807" rx="50.8807" ry="50.8807" fill="#67C957"/>
<ellipse cx="50.8807" cy="50.8807" rx="50.8807" ry="50.8807" fill="url(#paint0_linear_556_3610)" fill-opacity="0.2"/>
</g>
<path fill-rule="evenodd" clip-rule="evenodd" d="M67.7667 52.216H55.0921V56.4823H67.381C67.507 56.4823 67.6303 56.5183 67.7363 56.5859C67.8424 56.6535 67.9267 56.7498 67.9792 56.8635L72.0377 63.8463C72.9283 63.5195 73.9091 63.531 74.7917 63.8785C75.6743 64.2261 76.3966 64.8853 76.8197 65.7295C77.2429 66.5737 77.3372 67.5434 77.0845 68.4524C76.8318 69.3614 76.2499 70.1457 75.4505 70.6546C74.6512 71.1635 73.6907 71.3611 72.7536 71.2096C71.8165 71.0581 70.9688 70.568 70.3732 69.8336C69.7777 69.0991 69.4763 68.1721 69.5269 67.2303C69.5775 66.2886 69.9766 65.3987 70.6475 64.7314C70.7306 64.6489 70.8166 64.5709 70.9055 64.4975L67.0071 57.7876H55.0921V62.0545H59.2048C59.3307 62.0544 59.4541 62.0903 59.56 62.1579C59.666 62.2255 59.7501 62.322 59.8024 62.4358L63.8615 69.4186C64.7524 69.0916 65.7335 69.103 66.6165 69.4506C67.4994 69.7983 68.2219 70.4576 68.6453 71.3021C69.0686 72.1466 69.163 73.1166 68.9102 74.026C68.6574 74.9353 68.0753 75.7199 67.2757 76.2289C66.4761 76.738 65.5153 76.9357 64.5778 76.7841C63.6404 76.6325 62.7924 76.1423 62.1967 75.4076C61.6009 74.6729 61.2995 73.7454 61.3501 72.8034C61.4008 71.8614 61.8001 70.9712 62.4713 70.3037C62.5536 70.222 62.6389 70.144 62.7287 70.0697L58.8284 63.3599H54.3805C51.2305 63.3599 48.2095 62.117 45.9821 59.9046C43.7548 57.6923 42.5034 54.6917 42.5034 51.563C42.5034 48.4343 43.7548 45.4337 45.9821 43.2213C48.2095 41.009 51.2305 39.7661 54.3805 39.7661H58.8284L62.7287 33.0568C62.6389 32.9826 62.5536 32.9046 62.4713 32.8229C61.8037 32.1581 61.4067 31.2719 61.3566 30.3343C61.3065 29.3967 61.6068 28.4737 62.1998 27.7425C62.7929 27.0113 63.6369 26.5234 64.5699 26.3724C65.503 26.2214 66.4593 26.418 67.2553 26.9245C68.0513 27.4309 68.631 28.2115 68.8831 29.1165C69.1352 30.0214 69.042 30.987 68.6213 31.8278C68.2006 32.6686 67.482 33.3255 66.6036 33.6724C65.7251 34.0193 64.7486 34.0317 63.8615 33.7073L59.8024 40.6902C59.75 40.8039 59.6658 40.9003 59.5599 40.9679C59.454 41.0354 59.3307 41.0714 59.2048 41.0714H55.0921V45.3377H67.0071L70.9055 38.6273C70.8157 38.553 70.7298 38.475 70.6475 38.3933C69.9808 37.7292 69.5846 36.844 69.5347 35.9075C69.4848 34.971 69.7849 34.0492 70.3773 33.319C70.9697 32.5887 71.8128 32.1015 72.7447 31.9508C73.6766 31.8001 74.6317 31.9965 75.4267 32.5023C76.2218 33.0081 76.8008 33.7877 77.0527 34.6915C77.3045 35.5954 77.2115 36.5597 76.7914 37.3996C76.3713 38.2394 75.6537 38.8956 74.7764 39.2423C73.8991 39.5889 72.9238 39.6015 72.0377 39.2778L67.9792 46.2618C67.9268 46.3757 67.8426 46.4722 67.7365 46.5399C67.6305 46.6076 67.5071 46.6436 67.381 46.6437H55.0921V50.91H67.7667C67.9313 49.9687 68.4454 49.1229 69.2074 48.5398C69.9694 47.9567 70.9239 47.6787 71.8823 47.7607C72.8406 47.8428 73.7332 48.2789 74.3835 48.9829C75.0338 49.6869 75.3946 50.6075 75.3946 51.563C75.3946 52.5184 75.0338 53.4391 74.3835 54.1431C73.7332 54.8471 72.8406 55.2832 71.8823 55.3652C70.9239 55.4473 69.9694 55.1693 69.2074 54.5862C68.4454 54.0031 67.9313 53.1573 67.7667 52.216ZM54.4347 79.415C54.609 79.415 54.7762 79.3462 54.8995 79.2238C55.0228 79.1013 55.0921 78.9352 55.0921 78.762V67.4411C55.0919 67.268 55.0226 67.1021 54.8993 66.9798C54.776 66.8575 54.6089 66.7888 54.4347 66.7888C50.3691 66.7888 46.4701 65.1846 43.5953 62.3292C40.7205 59.4738 39.1055 55.6011 39.1055 51.563C39.1055 47.5249 40.7205 43.6521 43.5953 40.7967C46.4701 37.9413 50.3691 36.3372 54.4347 36.3372C54.609 36.3372 54.7762 36.2684 54.8995 36.1459C55.0228 36.0235 55.0921 35.8574 55.0921 35.6842V24.3639C55.0921 24.1907 55.0228 24.0246 54.8995 23.9022C54.7762 23.7797 54.609 23.7109 54.4347 23.7109H50.307C49.877 23.7105 49.4612 23.8634 49.1351 24.1418C48.8091 24.4202 48.5945 24.8056 48.5304 25.2279L47.6238 31.0905C47.114 31.2555 46.6155 31.4394 46.1282 31.642C45.636 31.8446 45.1522 32.0649 44.6769 32.303L39.8601 28.7924C39.5146 28.5387 39.0888 28.4168 38.6603 28.4491C38.2319 28.4814 37.8294 28.6656 37.5264 28.9682L31.687 34.7688C31.382 35.0696 31.1963 35.4693 31.1637 35.8949C31.1311 36.3205 31.2538 36.7436 31.5094 37.0867L35.0445 41.8717C34.8048 42.3437 34.5829 42.8242 34.379 43.3132C34.1771 43.7956 33.992 44.2907 33.8237 44.7986L27.9207 45.6961C27.4956 45.76 27.1076 45.9733 26.8273 46.2972C26.547 46.6211 26.3931 47.0342 26.3934 47.4613V55.6647C26.3931 56.0918 26.547 56.5048 26.8273 56.8288C27.1076 57.1527 27.4956 57.366 27.9207 57.4299L33.8231 58.3298C33.9914 58.8361 34.1764 59.3312 34.3783 59.8152C34.5802 60.2992 34.8021 60.7795 35.0438 61.2561L31.5094 66.0405C31.2538 66.3835 31.1311 66.8065 31.1637 67.232C31.1963 67.6575 31.3821 68.0571 31.687 68.3578L37.5264 74.1584C37.8292 74.4613 38.2317 74.6458 38.6602 74.6782C39.0887 74.7106 39.5146 74.5887 39.8601 74.3348L44.6782 70.8236C45.1539 71.0617 45.6378 71.2824 46.1301 71.4859C46.6157 71.686 47.113 71.8694 47.6219 72.0361L48.5286 77.8993C48.5933 78.3215 48.8084 78.7067 49.1347 78.9848C49.461 79.2629 49.877 79.4156 50.307 79.415H54.4347Z" fill="white"/>
<defs>
<filter id="filter0_i_556_3610" x="0" y="0" width="101.761" height="117.787" filterUnits="userSpaceOnUse" color-interpolation-filters="sRGB">
<feFlood flood-opacity="0" result="BackgroundImageFix"/>
<feBlend mode="normal" in="SourceGraphic" in2="BackgroundImageFix" result="shape"/>
<feColorMatrix in="SourceAlpha" type="matrix" values="0 0 0 0 0 0 0 0 0 0 0 0 0 0 0 0 0 0 127 0" result="hardAlpha"/>
<feOffset dy="16.0254"/>
<feGaussianBlur stdDeviation="12.0191"/>
<feComposite in2="hardAlpha" operator="arithmetic" k2="-1" k3="1"/>
<feColorMatrix type="matrix" values="0 0 0 0 0 0 0 0 0 0 0 0 0 0 0 0 0 0 0.25 0"/>
<feBlend mode="normal" in2="shape" result="effect1_innerShadow_556_3610"/>
</filter>
<linearGradient id="paint0_linear_556_3610" x1="24.0381" y1="91.3448" x2="101.761" y2="-4.00633" gradientUnits="userSpaceOnUse">
<stop stop-color="#093A01"/>
<stop offset="1" stop-color="white" stop-opacity="0.75"/>
</linearGradient>
</defs>
</svg>
