<svg width="102" height="102" viewBox="0 0 102 102" fill="none" xmlns="http://www.w3.org/2000/svg">
<g filter="url(#filter0_i_556_3548)">
<ellipse cx="50.8807" cy="50.8807" rx="50.8807" ry="50.8807" fill="#67C957"/>
<ellipse cx="50.8807" cy="50.8807" rx="50.8807" ry="50.8807" fill="url(#paint0_linear_556_3548)" fill-opacity="0.2"/>
</g>
<path d="M68.6108 70.8945H34.5575C33.4285 70.8945 32.3458 70.4461 31.5475 69.6478C30.7493 68.8495 30.3008 67.7668 30.3008 66.6379V35.6803C30.3008 34.5513 30.7493 33.4686 31.5475 32.6703C32.3458 31.8721 33.4285 31.4236 34.5575 31.4236H68.6108C69.7398 31.4236 70.8225 31.8721 71.6208 32.6703C72.419 33.4686 72.8675 34.5513 72.8675 35.6803V66.6379C72.8675 67.7668 72.419 68.8495 71.6208 69.6478C70.8225 70.4461 69.7398 70.8945 68.6108 70.8945ZM32.6226 43.0327V66.6379C32.6226 67.151 32.8265 67.6432 33.1893 68.006C33.5522 68.3689 34.0443 68.5727 34.5575 68.5727H68.6108C69.124 68.5727 69.6161 68.3689 69.979 68.006C70.3418 67.6432 70.5457 67.151 70.5457 66.6379V43.0327H32.6226ZM32.6226 40.7109H70.5457V35.6803C70.5457 35.1671 70.3418 34.675 69.979 34.3121C69.6161 33.9493 69.124 33.7454 68.6108 33.7454H34.5575C34.0443 33.7454 33.5522 33.9493 33.1893 34.3121C32.8265 34.675 32.6226 35.1671 32.6226 35.6803V40.7109ZM65.5151 63.1551H46.9405C46.6326 63.1551 46.3373 63.0328 46.1196 62.8151C45.9019 62.5974 45.7796 62.3021 45.7796 61.9942C45.7796 61.6863 45.9019 61.3911 46.1196 61.1733C46.3373 60.9556 46.6326 60.8333 46.9405 60.8333H65.5151C65.823 60.8333 66.1183 60.9556 66.336 61.1733C66.5537 61.3911 66.676 61.6863 66.676 61.9942C66.676 62.3021 66.5537 62.5974 66.336 62.8151C66.1183 63.0328 65.823 63.1551 65.5151 63.1551ZM40.749 63.1551H37.6532C37.3453 63.1551 37.05 63.0328 36.8323 62.8151C36.6146 62.5974 36.4923 62.3021 36.4923 61.9942C36.4923 61.6863 36.6146 61.3911 36.8323 61.1733C37.05 60.9556 37.3453 60.8333 37.6532 60.8333H40.749C41.0569 60.8333 41.3522 60.9556 41.5699 61.1733C41.7876 61.3911 41.9099 61.6863 41.9099 61.9942C41.9099 62.3021 41.7876 62.5974 41.5699 62.8151C41.3522 63.0328 41.0569 63.1551 40.749 63.1551ZM65.5151 56.9636H46.9405C46.6326 56.9636 46.3373 56.8413 46.1196 56.6236C45.9019 56.4059 45.7796 56.1106 45.7796 55.8027C45.7796 55.4948 45.9019 55.1995 46.1196 54.9818C46.3373 54.7641 46.6326 54.6418 46.9405 54.6418H65.5151C65.823 54.6418 66.1183 54.7641 66.336 54.9818C66.5537 55.1995 66.676 55.4948 66.676 55.8027C66.676 56.1106 66.5537 56.4059 66.336 56.6236C66.1183 56.8413 65.823 56.9636 65.5151 56.9636ZM40.749 56.9636H37.6532C37.3453 56.9636 37.05 56.8413 36.8323 56.6236C36.6146 56.4059 36.4923 56.1106 36.4923 55.8027C36.4923 55.4948 36.6146 55.1995 36.8323 54.9818C37.05 54.7641 37.3453 54.6418 37.6532 54.6418H40.749C41.0569 54.6418 41.3522 54.7641 41.5699 54.9818C41.7876 55.1995 41.9099 55.4948 41.9099 55.8027C41.9099 56.1106 41.7876 56.4059 41.5699 56.6236C41.3522 56.8413 41.0569 56.9636 40.749 56.9636ZM65.5151 50.7721H46.9405C46.6326 50.7721 46.3373 50.6498 46.1196 50.4321C45.9019 50.2144 45.7796 49.9191 45.7796 49.6112C45.7796 49.3033 45.9019 49.008 46.1196 48.7903C46.3373 48.5726 46.6326 48.4503 46.9405 48.4503H65.5151C65.823 48.4503 66.1183 48.5726 66.336 48.7903C66.5537 49.008 66.676 49.3033 66.676 49.6112C66.676 49.9191 66.5537 50.2144 66.336 50.4321C66.1183 50.6498 65.823 50.7721 65.5151 50.7721ZM40.749 50.7721H37.6532C37.3453 50.7721 37.05 50.6498 36.8323 50.4321C36.6146 50.2144 36.4923 49.9191 36.4923 49.6112C36.4923 49.3033 36.6146 49.008 36.8323 48.7903C37.05 48.5726 37.3453 48.4503 37.6532 48.4503H40.749C41.0569 48.4503 41.3522 48.5726 41.5699 48.7903C41.7876 49.008 41.9099 49.3033 41.9099 49.6112C41.9099 49.9191 41.7876 50.2144 41.5699 50.4321C41.3522 50.6498 41.0569 50.7721 40.749 50.7721ZM45.3926 39.163C45.0099 39.163 44.6359 39.0495 44.3177 38.8369C43.9995 38.6243 43.7515 38.3221 43.6051 37.9686C43.4586 37.615 43.4203 37.226 43.4949 36.8507C43.5696 36.4753 43.7539 36.1306 44.0245 35.86C44.2951 35.5894 44.6398 35.4051 45.0152 35.3305C45.3905 35.2558 45.7795 35.2941 46.1331 35.4406C46.4866 35.587 46.7888 35.835 47.0014 36.1532C47.214 36.4714 47.3275 36.8455 47.3275 37.2281C47.3275 37.7413 47.1236 38.2334 46.7608 38.5963C46.3979 38.9591 45.9058 39.163 45.3926 39.163ZM39.2011 39.163C38.8184 39.163 38.4443 39.0495 38.1262 38.8369C37.808 38.6243 37.56 38.3221 37.4135 37.9686C37.2671 37.615 37.2288 37.226 37.3034 36.8507C37.3781 36.4753 37.5624 36.1306 37.833 35.86C38.1035 35.5894 38.4483 35.4051 38.8236 35.3305C39.199 35.2558 39.588 35.2941 39.9415 35.4406C40.2951 35.587 40.5973 35.835 40.8099 36.1532C41.0225 36.4714 41.1359 36.8455 41.1359 37.2281C41.1359 37.7413 40.9321 38.2334 40.5692 38.5963C40.2064 38.9591 39.7143 39.163 39.2011 39.163Z" fill="white"/>
<defs>
<filter id="filter0_i_556_3548" x="0" y="0" width="101.761" height="117.787" filterUnits="userSpaceOnUse" color-interpolation-filters="sRGB">
<feFlood flood-opacity="0" result="BackgroundImageFix"/>
<feBlend mode="normal" in="SourceGraphic" in2="BackgroundImageFix" result="shape"/>
<feColorMatrix in="SourceAlpha" type="matrix" values="0 0 0 0 0 0 0 0 0 0 0 0 0 0 0 0 0 0 127 0" result="hardAlpha"/>
<feOffset dy="16.0254"/>
<feGaussianBlur stdDeviation="12.0191"/>
<feComposite in2="hardAlpha" operator="arithmetic" k2="-1" k3="1"/>
<feColorMatrix type="matrix" values="0 0 0 0 0 0 0 0 0 0 0 0 0 0 0 0 0 0 0.25 0"/>
<feBlend mode="normal" in2="shape" result="effect1_innerShadow_556_3548"/>
</filter>
<linearGradient id="paint0_linear_556_3548" x1="24.0381" y1="91.3448" x2="101.761" y2="-4.00633" gradientUnits="userSpaceOnUse">
<stop stop-color="#093A01"/>
<stop offset="1" stop-color="white" stop-opacity="0.75"/>
</linearGradient>
</defs>
</svg>
